<svg width="284" height="284" viewBox="0 0 284 284" fill="none" xmlns="http://www.w3.org/2000/svg">
<path d="M131.752 5.91667L138.584 1.97222L138.834 2.40524L142 0.57735L145.166 2.40523L145.416 1.97221L152.248 5.91666L151.998 6.34967L158.83 10.2941L159.08 9.8611L165.912 13.8055L165.662 14.2386L172.494 18.183L172.744 17.75L179.576 21.6944L179.326 22.1275L186.158 26.0719L186.408 25.6389L193.24 29.5833L192.99 30.0163L199.822 33.9608L200.072 33.5278L206.904 37.4722L206.654 37.9052L213.486 41.8497L213.736 41.4167L220.568 45.3611L220.318 45.7941L227.15 49.7386L227.4 49.3056L234.232 53.25L233.982 53.683L240.814 57.6275L241.064 57.1944L247.896 61.1389L247.646 61.5719L254.478 65.5163L254.728 65.0833L261.56 69.0278L261.31 69.4608L264.476 71.2887V74.9445H264.976V82.8334H264.476V90.7222H264.976V98.6111H264.476V106.5H264.976V114.389H264.476V122.278H264.976V130.167H264.476V138.056H264.976V145.944H264.476V153.833H264.976V161.722H264.476V169.611H264.976V177.5H264.476V185.389H264.976V193.278H264.476V201.167H264.976V209.056H264.476V212.711L261.31 214.539L261.56 214.972L254.728 218.917L254.478 218.484L247.646 222.428L247.896 222.861L241.064 226.806L240.814 226.373L233.982 230.317L234.232 230.75L227.4 234.694L227.15 234.261L220.318 238.206L220.568 238.639L213.736 242.583L213.486 242.15L206.654 246.095L206.904 246.528L200.072 250.472L199.822 250.039L192.99 253.984L193.24 254.417L186.408 258.361L186.158 257.928L179.326 261.873L179.576 262.306L172.744 266.25L172.494 265.817L165.662 269.761L165.912 270.194L159.08 274.139L158.83 273.706L151.998 277.65L152.248 278.083L145.416 282.028L145.166 281.595L142 283.423L138.834 281.595L138.584 282.028L131.752 278.083L132.002 277.65L125.17 273.706L124.92 274.139L118.088 270.194L118.338 269.761L111.506 265.817L111.256 266.25L104.424 262.306L104.674 261.873L97.8421 257.928L97.5921 258.361L90.7602 254.417L91.0102 253.984L84.1782 250.039L83.9282 250.472L77.0962 246.528L77.3462 246.095L70.5142 242.15L70.2642 242.583L63.4323 238.639L63.6823 238.206L56.8503 234.261L56.6003 234.694L49.7683 230.75L50.0183 230.317L43.1863 226.373L42.9363 226.806L36.1043 222.861L36.3543 222.428L29.5224 218.484L29.2724 218.917L22.4404 214.972L22.6904 214.539L19.5244 212.711V209.056H19.0244V201.167H19.5244V193.278H19.0244V185.389H19.5244V177.5H19.0244V169.611H19.5244V161.722H19.0244V153.833H19.5244V145.944H19.0244V138.056H19.5244V130.167H19.0244V122.278H19.5244V114.389H19.0244V106.5H19.5244V98.6111H19.0244V90.7222H19.5244V82.8333H19.0244V74.9444H19.5244V71.2887L22.6904 69.4608L22.4404 69.0278L29.2724 65.0833L29.5224 65.5163L36.3544 61.5719L36.1044 61.1389L42.9363 57.1944L43.1863 57.6274L50.0183 53.683L49.7683 53.25L56.6003 49.3055L56.8503 49.7386L63.6823 45.7941L63.4323 45.3611L70.2642 41.4167L70.5142 41.8497L77.3462 37.9052L77.0962 37.4722L83.9282 33.5278L84.1782 33.9608L91.0102 30.0163L90.7602 29.5833L97.5921 25.6389L97.8421 26.0719L104.674 22.1275L104.424 21.6944L111.256 17.75L111.506 18.183L118.338 14.2386L118.088 13.8056L124.92 9.86111L125.17 10.2941L132.002 6.34968L131.752 5.91667Z" stroke="url(#paint0_linear_277_12887)" stroke-dasharray="8 8"/>
<g filter="url(#filter0_bi_277_12887)">
<path d="M142 20L247.655 81V203L142 264L36.3449 203V81L142 20Z" fill="url(#paint1_linear_277_12887)"/>
<path d="M142 20L247.655 81V203L142 264L36.3449 203V81L142 20Z" stroke="url(#paint2_linear_277_12887)"/>
</g>
<path d="M110.537 153.076L114.009 149.576V135.66L110.537 132.188H103.593V153.076H110.537ZM110.537 149.576H107.065V135.66H110.537V149.576ZM127.216 153.076V149.576H120.272V143.92H123.072L126.572 140.448H120.272V135.66H127.216V132.188H116.8V149.576L120.272 153.076H127.216ZM133.479 153.076V143.948H136.951L140.423 140.476V135.688L136.951 132.216H130.007V153.076H133.479ZM136.951 140.476H133.479V135.688H136.951V140.476ZM150.186 153.076L153.658 149.576H146.686V132.188H143.214V153.076H150.186ZM166.182 153.076V132.216H155.738V153.076H166.182ZM162.71 149.604H159.238V135.688H162.71V149.604ZM179.416 153.076V132.216H175.944V142.66H172.444V132.216H168.972V146.132H175.944V149.604H168.972L172.444 153.076H179.416Z" fill="white"/>
<defs>
<filter id="filter0_bi_277_12887" x="31.8438" y="15.4229" width="220.312" height="253.154" filterUnits="userSpaceOnUse" color-interpolation-filters="sRGB">
<feFlood flood-opacity="0" result="BackgroundImageFix"/>
<feGaussianBlur in="BackgroundImageFix" stdDeviation="2"/>
<feComposite in2="SourceAlpha" operator="in" result="effect1_backgroundBlur_277_12887"/>
<feBlend mode="normal" in="SourceGraphic" in2="effect1_backgroundBlur_277_12887" result="shape"/>
<feColorMatrix in="SourceAlpha" type="matrix" values="0 0 0 0 0 0 0 0 0 0 0 0 0 0 0 0 0 0 127 0" result="hardAlpha"/>
<feOffset dy="4"/>
<feGaussianBlur stdDeviation="2"/>
<feComposite in2="hardAlpha" operator="arithmetic" k2="-1" k3="1"/>
<feColorMatrix type="matrix" values="0 0 0 0 0.662745 0 0 0 0 0.203922 0 0 0 0 0.760784 0 0 0 0.1 0"/>
<feBlend mode="normal" in2="shape" result="effect2_innerShadow_277_12887"/>
</filter>
<linearGradient id="paint0_linear_277_12887" x1="17.5" y1="70" x2="71.9409" y2="15.5335" gradientUnits="userSpaceOnUse">
<stop stop-color="#CB42AD"/>
<stop offset="0.494792" stop-color="#7B39FE"/>
<stop offset="1" stop-color="#CB42AD"/>
</linearGradient>
<linearGradient id="paint1_linear_277_12887" x1="142" y1="20" x2="142" y2="264" gradientUnits="userSpaceOnUse">
<stop stop-color="#7B39FE" stop-opacity="0"/>
<stop offset="0.994792" stop-color="#DD0DAC" stop-opacity="0.2"/>
</linearGradient>
<linearGradient id="paint2_linear_277_12887" x1="20" y1="-5.18057" x2="330.88" y2="69.4485" gradientUnits="userSpaceOnUse">
<stop stop-color="#CB42AD" stop-opacity="0.1"/>
<stop offset="0.619792" stop-color="#7B39FE"/>
<stop offset="1" stop-color="#CB42AD" stop-opacity="0.1"/>
</linearGradient>
</defs>
</svg>
