<svg width="50" height="50" viewBox="0 0 50 50" fill="none" xmlns="http://www.w3.org/2000/svg">
<path d="M30.3099 45.1462C39.2474 42.792 45.8307 34.667 45.8307 25.0003C45.8307 13.5003 36.5807 4.16699 24.9974 4.16699C11.1016 4.16699 4.16406 15.7503 4.16406 15.7503M4.16406 15.7503V6.25033M4.16406 15.7503H8.35156H13.4141" stroke="url(#paint0_linear_302_12627)" stroke-width="2" stroke-linecap="round" stroke-linejoin="round"/>
<path d="M4.16406 25C4.16406 36.5 13.4974 45.8333 24.9974 45.8333" stroke="url(#paint1_linear_302_12627)" stroke-width="2" stroke-linecap="round" stroke-linejoin="round" stroke-dasharray="3 3"/>
<path style="mix-blend-mode:screen" d="M26.6279 39.995C23.9345 40.0684 21.7328 39.2611 21.7034 38.1602C21.6741 37.0594 23.8244 36.12 26.5178 36.0466C29.2112 35.9732 31.4202 36.7805 31.4496 37.8887C31.4789 38.9969 29.3213 39.9509 26.6279 39.995Z" fill="url(#paint2_radial_302_12627)"/>
<path style="mix-blend-mode:screen" d="M26.7998 11.7918C27.3355 13.3623 25.9264 15.2631 23.644 16.0337C21.3616 16.8043 19.0865 16.1731 18.5508 14.5659C18.015 12.9587 19.4315 11.1019 21.7065 10.324C23.9816 9.54604 26.264 10.2212 26.7998 11.7918Z" fill="url(#paint3_radial_302_12627)"/>
<path d="M18.5938 24.635L26.5712 21.0976V11.6523L18.5938 24.635Z" fill="url(#paint4_linear_302_12627)"/>
<path d="M18.5938 24.635L26.5712 29.2512V21.0977L18.5938 24.635Z" fill="url(#paint5_linear_302_12627)"/>
<path d="M18.5938 26.0801L26.5712 37.0225V30.7477L18.5938 26.0801Z" fill="url(#paint6_linear_302_12627)"/>
<path d="M34.5551 24.634L26.5703 21.0966V11.6514L34.5551 24.634Z" fill="url(#paint7_linear_302_12627)"/>
<path d="M34.5551 24.635L26.5703 29.2512V21.0977L34.5551 24.635Z" fill="url(#paint8_linear_302_12627)"/>
<path d="M34.5551 26.0801L26.5703 37.0225V30.7477L34.5551 26.0801Z" fill="url(#paint9_linear_302_12627)"/>
<path d="M34.5551 26.0801L26.5703 37.0225V30.7477L34.5551 26.0801Z" fill="url(#paint10_linear_302_12627)"/>
<g style="mix-blend-mode:screen" opacity="0.8">
<path d="M26.6152 21.1558C29.2573 22.3154 31.892 23.497 34.5487 24.6272C31.914 23.4162 29.2573 22.2493 26.6152 21.0678C26.6152 17.9267 26.6152 14.7856 26.5712 11.6445C26.5712 14.7709 26.5712 17.8973 26.5272 21.0237V21.0678L18.5938 24.6272L26.5272 21.1558L26.5712 29.2287L26.6152 21.1558Z" fill="#CB42AD"/>
</g>
<g style="mix-blend-mode:screen" opacity="0.8">
<path d="M26.5675 30.7402C26.5088 32.8343 26.5088 34.9283 26.5675 37.0224C26.6262 34.9234 26.6262 32.8294 26.5675 30.7402Z" fill="#CB42AD"/>
</g>
<path style="mix-blend-mode:screen" d="M27.4331 13.0905C27.9248 12.8043 29.7742 14.9987 31.5649 18.0076C33.3556 21.0166 34.4124 23.6953 33.9207 23.9889C33.429 24.2824 31.5796 22.0808 29.7889 19.0718C27.9982 16.0628 26.9414 13.3841 27.4331 13.0905Z" fill="url(#paint11_radial_302_12627)"/>
<path style="mix-blend-mode:screen" d="M32.8669 27.8862C33.3439 28.2311 32.6027 30.0878 31.201 32.0767C29.7992 34.0656 28.2654 35.3646 27.803 35.0123C27.3407 34.66 28.0672 32.8106 29.4616 30.8291C30.856 28.8476 32.3825 27.5192 32.8669 27.8862Z" fill="url(#paint12_radial_302_12627)"/>
<path style="mix-blend-mode:screen" d="M28.5426 32.1423C27.6179 33.6101 24.4108 33.3238 21.3798 31.4524C18.3488 29.581 16.6388 26.8435 17.5635 25.3537C18.4882 23.8639 21.6954 24.1648 24.7263 26.0436C27.7573 27.9224 29.504 30.6525 28.5426 32.1423Z" fill="url(#paint13_radial_302_12627)"/>
<path style="mix-blend-mode:screen" d="M25.9465 30.5352C25.7337 30.8728 24.2659 30.3517 22.6733 29.361C21.0808 28.3702 19.9653 27.2987 20.1634 26.9611C20.3616 26.6235 21.8367 27.1446 23.4366 28.1354C25.0365 29.1261 26.152 30.1976 25.9465 30.5352Z" fill="url(#paint14_radial_302_12627)"/>
<path style="mix-blend-mode:screen" d="M17.2074 27.3647C15.3507 26.2638 15.6662 22.3155 17.9413 18.5579C20.2164 14.8004 23.5043 12.6427 25.361 13.7435C27.2178 14.8444 26.8949 18.8001 24.6271 22.5503C22.3594 26.3005 19.0568 28.4728 17.2074 27.3647Z" fill="url(#paint15_radial_302_12627)"/>
<path style="mix-blend-mode:screen" d="M22.2282 21.1224C23.7122 18.6331 24.4861 16.3594 23.9569 16.044C23.4277 15.7285 21.7958 17.4907 20.3119 19.98C18.828 22.4693 18.054 24.743 18.5832 25.0585C19.1124 25.374 20.7443 23.6117 22.2282 21.1224Z" fill="url(#paint16_radial_302_12627)"/>
<defs>
<linearGradient id="paint0_linear_302_12627" x1="4.16406" y1="0.752066" x2="45.8999" y2="10.658" gradientUnits="userSpaceOnUse">
<stop stop-color="#7B39FE"/>
<stop offset="1" stop-color="#CB42AD"/>
</linearGradient>
<linearGradient id="paint1_linear_302_12627" x1="4.16406" y1="23.2639" x2="25.0685" y2="28.1436" gradientUnits="userSpaceOnUse">
<stop stop-color="#7B39FE"/>
<stop offset="1" stop-color="#CB42AD"/>
</linearGradient>
<radialGradient id="paint2_radial_302_12627" cx="0" cy="0" r="1" gradientUnits="userSpaceOnUse" gradientTransform="translate(26.4655 38.3445) rotate(88.9191) scale(1.98018 4.85815)">
<stop stop-color="#5BCAEB"/>
<stop offset="0.04" stop-color="#4DAAC6"/>
<stop offset="0.08" stop-color="#3D879D"/>
<stop offset="0.13" stop-color="#2E6677"/>
<stop offset="0.18" stop-color="#224A57"/>
<stop offset="0.24" stop-color="#17333B"/>
<stop offset="0.31" stop-color="#0E2025"/>
<stop offset="0.39" stop-color="#081214"/>
<stop offset="0.49" stop-color="#030709"/>
<stop offset="0.62" stop-color="#010202"/>
<stop offset="1"/>
</radialGradient>
<radialGradient id="paint3_radial_302_12627" cx="0" cy="0" r="1" gradientUnits="userSpaceOnUse" gradientTransform="translate(22.8605 13.353) rotate(-18.6157) scale(4.37001 2.99147)">
<stop stop-color="#C55FC3"/>
<stop offset="0.05" stop-color="#9C4B9A"/>
<stop offset="0.1" stop-color="#773976"/>
<stop offset="0.16" stop-color="#572A56"/>
<stop offset="0.22" stop-color="#3B1D3B"/>
<stop offset="0.29" stop-color="#251225"/>
<stop offset="0.37" stop-color="#140A14"/>
<stop offset="0.47" stop-color="#090409"/>
<stop offset="0.61" stop-color="#020102"/>
<stop offset="1"/>
</radialGradient>
<linearGradient id="paint4_linear_302_12627" x1="21.3312" y1="16.8924" x2="26.0575" y2="21.6113" gradientUnits="userSpaceOnUse">
<stop stop-color="#FFE0FE"/>
<stop offset="0.16" stop-color="#F8B5F5"/>
<stop offset="0.34" stop-color="#F18FEE"/>
<stop offset="0.51" stop-color="#EC71E8"/>
<stop offset="0.68" stop-color="#E95BE3"/>
<stop offset="0.85" stop-color="#E74EE1"/>
<stop offset="1" stop-color="#E64AE0"/>
</linearGradient>
<linearGradient id="paint5_linear_302_12627" x1="22.3073" y1="27.3284" x2="26.7473" y2="21.2224" gradientUnits="userSpaceOnUse">
<stop stop-color="#6B2569"/>
<stop offset="1" stop-color="#E381E1"/>
</linearGradient>
<linearGradient id="paint6_linear_302_12627" x1="18.5938" y1="31.5476" x2="26.5712" y2="31.5476" gradientUnits="userSpaceOnUse">
<stop stop-color="#FFE0FE"/>
<stop offset="0.16" stop-color="#F8B5F5"/>
<stop offset="0.34" stop-color="#F18FEE"/>
<stop offset="0.51" stop-color="#EC71E8"/>
<stop offset="0.68" stop-color="#E95BE3"/>
<stop offset="0.85" stop-color="#E74EE1"/>
<stop offset="1" stop-color="#E64AE0"/>
</linearGradient>
<linearGradient id="paint7_linear_302_12627" x1="26.5703" y1="18.1485" x2="34.5478" y2="18.1485" gradientUnits="userSpaceOnUse">
<stop stop-color="#8C2D88"/>
<stop offset="0.16" stop-color="#523986"/>
<stop offset="0.33" stop-color="#46218F"/>
<stop offset="0.41" stop-color="#4B298F"/>
<stop offset="0.52" stop-color="#5025A6"/>
<stop offset="0.69" stop-color="#682EDA"/>
<stop offset="0.91" stop-color="#7535F3"/>
<stop offset="1" stop-color="#7B39FE"/>
</linearGradient>
<linearGradient id="paint8_linear_302_12627" x1="26.5703" y1="25.1781" x2="34.5478" y2="25.1781" gradientUnits="userSpaceOnUse">
<stop stop-color="#8C2D88"/>
<stop offset="0.16" stop-color="#523986"/>
<stop offset="0.33" stop-color="#46218F"/>
<stop offset="0.41" stop-color="#4B298F"/>
<stop offset="0.52" stop-color="#5025A6"/>
<stop offset="0.69" stop-color="#682EDA"/>
<stop offset="0.91" stop-color="#7535F3"/>
<stop offset="1" stop-color="#7B39FE"/>
</linearGradient>
<linearGradient id="paint9_linear_302_12627" x1="26.5556" y1="30.8431" x2="33.4983" y2="32.0687" gradientUnits="userSpaceOnUse">
<stop stop-color="#993495"/>
<stop offset="0.07" stop-color="#8546A1"/>
<stop offset="0.3" stop-color="#4184CB"/>
<stop offset="0.4" stop-color="#279CDB"/>
<stop offset="0.43" stop-color="#30A3DE"/>
<stop offset="0.53" stop-color="#51BAEA"/>
<stop offset="0.64" stop-color="#6ACCF3"/>
<stop offset="0.75" stop-color="#7CD9FA"/>
<stop offset="0.87" stop-color="#87E1FE"/>
<stop offset="1" stop-color="#8AE3FF"/>
</linearGradient>
<linearGradient id="paint10_linear_302_12627" x1="26.5703" y1="31.5562" x2="34.5478" y2="31.5562" gradientUnits="userSpaceOnUse">
<stop stop-color="#8C2D88"/>
<stop offset="0.16" stop-color="#523986"/>
<stop offset="0.33" stop-color="#46218F"/>
<stop offset="0.41" stop-color="#4B298F"/>
<stop offset="0.52" stop-color="#5025A6"/>
<stop offset="0.69" stop-color="#682EDA"/>
<stop offset="0.91" stop-color="#7535F3"/>
<stop offset="1" stop-color="#7B39FE"/>
</linearGradient>
<radialGradient id="paint11_radial_302_12627" cx="0" cy="0" r="1" gradientUnits="userSpaceOnUse" gradientTransform="translate(30.6538 18.7063) rotate(-119.5) scale(3.87801 0.8795)">
<stop stop-color="#A375FF"/>
<stop offset="0.01" stop-color="#A679FF"/>
<stop offset="0.05" stop-color="#7A4FCE"/>
<stop offset="0.09" stop-color="#5F3EA0"/>
<stop offset="0.14" stop-color="#442C73"/>
<stop offset="0.19" stop-color="#2F1E50"/>
<stop offset="0.25" stop-color="#261940"/>
<stop offset="0.32" stop-color="#150E24"/>
<stop offset="0.4" stop-color="#0D0916"/>
<stop offset="0.49" stop-color="#030709"/>
<stop offset="0.63"/>
<stop offset="1"/>
</radialGradient>
<radialGradient id="paint12_radial_302_12627" cx="0" cy="0" r="1" gradientUnits="userSpaceOnUse" gradientTransform="translate(30.3194 31.5574) rotate(-54.6052) scale(4.33794 1.06003)">
<stop stop-color="#A375FF"/>
<stop offset="0.01" stop-color="#A679FF"/>
<stop offset="0.05" stop-color="#7A4FCE"/>
<stop offset="0.09" stop-color="#5F3EA0"/>
<stop offset="0.14" stop-color="#442C73"/>
<stop offset="0.19" stop-color="#2F1E50"/>
<stop offset="0.25" stop-color="#261940"/>
<stop offset="0.32" stop-color="#150E24"/>
<stop offset="0.4" stop-color="#0D0916"/>
<stop offset="0.49" stop-color="#030709"/>
<stop offset="0.63"/>
<stop offset="1"/>
</radialGradient>
<radialGradient id="paint13_radial_302_12627" cx="0" cy="0" r="1" gradientUnits="userSpaceOnUse" gradientTransform="translate(23.1378 28.8795) rotate(31.8094) scale(6.45406 3.17923)">
<stop stop-color="#73236F"/>
<stop offset="0.04" stop-color="#621E5F"/>
<stop offset="0.14" stop-color="#441542"/>
<stop offset="0.25" stop-color="#2B0D2A"/>
<stop offset="0.37" stop-color="#180717"/>
<stop offset="0.5" stop-color="#0A030A"/>
<stop offset="0.68" stop-color="#020102"/>
<stop offset="1"/>
</radialGradient>
<radialGradient id="paint14_radial_302_12627" cx="0" cy="0" r="1" gradientUnits="userSpaceOnUse" gradientTransform="translate(22.9124 29.0198) rotate(31.8094) scale(3.39759 0.730274)">
<stop stop-color="#FC9AF7"/>
<stop offset="0.03" stop-color="#E189DC"/>
<stop offset="0.1" stop-color="#B26DAF"/>
<stop offset="0.16" stop-color="#885385"/>
<stop offset="0.24" stop-color="#633C61"/>
<stop offset="0.32" stop-color="#442A43"/>
<stop offset="0.4" stop-color="#2B1A2A"/>
<stop offset="0.49" stop-color="#180F17"/>
<stop offset="0.6" stop-color="#0A060A"/>
<stop offset="0.74" stop-color="#020102"/>
<stop offset="1"/>
</radialGradient>
<radialGradient id="paint15_radial_302_12627" cx="0" cy="0" r="1" gradientUnits="userSpaceOnUse" gradientTransform="translate(21.2245 20.6725) rotate(120.7) scale(7.93425 3.91958)">
<stop stop-color="#73236F"/>
<stop offset="0.04" stop-color="#621E5F"/>
<stop offset="0.14" stop-color="#441542"/>
<stop offset="0.25" stop-color="#2B0D2A"/>
<stop offset="0.37" stop-color="#180717"/>
<stop offset="0.5" stop-color="#0A030A"/>
<stop offset="0.68" stop-color="#020102"/>
<stop offset="1"/>
</radialGradient>
<radialGradient id="paint16_radial_302_12627" cx="0" cy="0" r="1" gradientUnits="userSpaceOnUse" gradientTransform="translate(21.1087 20.5095) rotate(120.8) scale(5.24178 1.12726)">
<stop stop-color="#FC9AF7"/>
<stop offset="0.03" stop-color="#E189DC"/>
<stop offset="0.1" stop-color="#B26DAF"/>
<stop offset="0.16" stop-color="#885385"/>
<stop offset="0.24" stop-color="#633C61"/>
<stop offset="0.32" stop-color="#442A43"/>
<stop offset="0.4" stop-color="#2B1A2A"/>
<stop offset="0.49" stop-color="#180F17"/>
<stop offset="0.6" stop-color="#0A060A"/>
<stop offset="0.74" stop-color="#020102"/>
<stop offset="1"/>
</radialGradient>
</defs>
</svg>
