<svg width="70" height="70" viewBox="0 0 70 70" fill="none" xmlns="http://www.w3.org/2000/svg">
<g clip-path="url(#clip0_83_7294)">
<path d="M21.4117 29.4132L35.007 15.8234L48.6078 29.4242L56.514 21.5125L35.007 0L13.5 21.507L21.4117 29.4132Z" fill="#F3BA2F"/>
<path d="M0 35.003L7.90617 27.0913L15.8179 35.003L7.90617 42.9092L0 35.003Z" fill="#F3BA2F"/>
<path d="M21.4117 40.5866L35.007 54.1819L48.6078 40.5811L56.5195 48.4817L35.0125 69.9942L13.5 48.4983L21.4117 40.5866Z" fill="#F3BA2F"/>
<path d="M54.1836 35.0025L62.0898 27.0908L70.0015 34.997L62.0898 42.9142L54.1836 35.0025Z" fill="#F3BA2F"/>
<path d="M43.0289 34.997L35.0066 26.9692L29.0743 32.9016L28.3887 33.5817L26.9844 34.986L35.0066 43.0027L43.0289 35.0026V34.997Z" fill="#F3BA2F"/>
</g>
<defs>
<clipPath id="clip0_83_7294">
<rect width="70" height="70" fill="white"/>
</clipPath>
</defs>
</svg>
