<svg width="70" height="70" viewBox="0 0 70 70" fill="none" xmlns="http://www.w3.org/2000/svg">
<g clip-path="url(#clip0_83_7304)">
<path d="M35 0C54.332 0 70 15.668 70 35C70 54.332 54.332 70 35 70C15.668 70 0 54.332 0 35C0 15.668 15.668 0 35 0Z" fill="#0052FF"/>
<path d="M35.0068 47.3047C28.2119 47.3047 22.7021 41.8018 22.7021 35C22.7021 28.1982 28.2119 22.6953 35.0068 22.6953C41.0977 22.6953 46.1562 27.1387 47.127 32.9492H59.5205C58.4746 20.3164 47.8994 10.3906 35 10.3906C21.4102 10.3906 10.3906 21.4102 10.3906 35C10.3906 48.5898 21.4102 59.6094 35 59.6094C47.8994 59.6094 58.4746 49.6836 59.5205 37.0508H47.1201C46.1426 42.8613 41.0977 47.3047 35.0068 47.3047Z" fill="white"/>
</g>
<defs>
<clipPath id="clip0_83_7304">
<rect width="70" height="70" fill="white"/>
</clipPath>
</defs>
</svg>
