<svg width="102" height="102" viewBox="0 0 102 102" fill="none" xmlns="http://www.w3.org/2000/svg">
<g filter="url(#filter0_b_282_3135)">
<circle cx="51" cy="51" r="50" fill="url(#paint0_linear_282_3135)"/>
<circle cx="51" cy="51" r="50" stroke="url(#paint1_linear_282_3135)" stroke-width="2"/>
</g>
<g clip-path="url(#clip0_282_3135)">
<path d="M69.6343 76.1307C69.5561 77.2039 68.3827 77.8078 67.4034 77.5637C66.6149 77.3666 66.1268 76.6657 65.864 75.943C65.2194 74.1783 66.0611 72.3791 66.5648 70.7052C67.3283 68.177 67.6975 65.045 65.5511 63.0612C62.1093 59.8791 57.5786 63.4899 53.777 63.5274C50.695 63.5587 50.7889 60.4361 51.7119 58.274C52.8821 55.5237 55.1537 53.3898 55.8296 50.3923C56.3802 47.9142 55.5542 45.3203 53.2857 44.0093C51.0173 42.6983 48.1543 42.9611 45.7013 43.5055C42.5379 44.2127 37.8571 45.4799 36.8558 41.1401C36.4835 39.5224 36.8558 37.8735 37.5411 36.3935C38.3014 34.7446 39.7313 33.3397 39.8001 31.4717C39.8377 30.6082 38.9053 30.2765 38.2357 30.5738C36.618 31.2903 35.6512 33.3397 34.9409 34.8697C34.1675 36.4162 33.7576 38.1189 33.7426 39.8478C33.802 42.7922 35.307 45.6864 38.1794 46.7315C41.5555 47.983 44.8283 46.2746 48.1762 45.9179C49.5498 45.774 51.2739 45.774 52.3721 46.7471C53.9178 48.1113 53.1825 50.2984 52.3721 51.8472C50.889 54.7133 48.6331 57.1069 48.3953 60.4861C48.2106 63.08 49.7219 65.4924 52.3346 66.0556C54.7751 66.5844 57.2313 65.4955 59.531 64.8416C60.5542 64.5506 61.762 64.1751 62.8352 64.4473C64.5467 64.8791 64.8784 66.7909 64.7125 68.3116C64.3621 71.5093 62.3565 75.9273 65.6199 78.3835C67.4347 79.754 70.8734 78.759 70.5667 76.1276C70.5667 76.0031 70.5173 75.8837 70.4293 75.7957C70.3412 75.7077 70.2219 75.6582 70.0974 75.6582C69.9729 75.6582 69.8535 75.7077 69.7655 75.7957C69.6775 75.8837 69.6281 76.0031 69.6281 76.1276L69.6343 76.1307Z" fill="url(#paint2_linear_282_3135)"/>
<path d="M40.0867 37.7771C40.3026 35.2364 40.4809 32.6676 40.7594 30.1269C40.8595 29.2289 39.7269 28.747 39.0385 29.1382C37.6336 29.9392 36.163 30.6275 34.7488 31.4191C34.123 31.7633 33.4972 32.1106 32.909 32.5111C31.3852 33.5468 31.8702 34.9392 33.7068 34.1288C34.3138 33.8628 34.8864 33.503 35.4622 33.1713C36.8639 32.3828 38.4377 31.8509 39.9209 31.2283L38.5128 29.8234C37.8401 32.6989 37.9152 35.1957 39.0354 37.921C39.0735 38.0423 39.1533 38.1461 39.2606 38.2142C39.3679 38.2822 39.4959 38.3101 39.6218 38.2929C39.7477 38.2756 39.8635 38.2144 39.9486 38.12C40.0337 38.0256 40.0826 37.9041 40.0867 37.7771Z" fill="url(#paint3_linear_282_3135)"/>
</g>
<defs>
<filter id="filter0_b_282_3135" x="-4" y="-4" width="110" height="110" filterUnits="userSpaceOnUse" color-interpolation-filters="sRGB">
<feFlood flood-opacity="0" result="BackgroundImageFix"/>
<feGaussianBlur in="BackgroundImageFix" stdDeviation="2"/>
<feComposite in2="SourceAlpha" operator="in" result="effect1_backgroundBlur_282_3135"/>
<feBlend mode="normal" in="SourceGraphic" in2="effect1_backgroundBlur_282_3135" result="shape"/>
</filter>
<linearGradient id="paint0_linear_282_3135" x1="51" y1="44.5" x2="51" y2="111.833" gradientUnits="userSpaceOnUse">
<stop stop-color="#7B39FE" stop-opacity="0"/>
<stop offset="0.994792" stop-color="#DD0DAC" stop-opacity="0.2"/>
</linearGradient>
<linearGradient id="paint1_linear_282_3135" x1="0.999997" y1="-9.31991" x2="128.41" y2="21.2658" gradientUnits="userSpaceOnUse">
<stop stop-color="#CB42AD" stop-opacity="0.1"/>
<stop offset="0.619792" stop-color="#7B39FE"/>
<stop offset="1" stop-color="#CB42AD" stop-opacity="0.1"/>
</linearGradient>
<linearGradient id="paint2_linear_282_3135" x1="70.5859" y1="83.0423" x2="38.7214" y2="78.3255" gradientUnits="userSpaceOnUse">
<stop stop-color="#7B39FE"/>
<stop offset="1" stop-color="#CB42AD"/>
</linearGradient>
<linearGradient id="paint3_linear_282_3135" x1="40.7656" y1="39.0726" x2="33.2736" y2="37.6956" gradientUnits="userSpaceOnUse">
<stop stop-color="#7B39FE"/>
<stop offset="1" stop-color="#CB42AD"/>
</linearGradient>
<clipPath id="clip0_282_3135">
<rect width="38.5951" height="50" fill="white" transform="translate(70.5938 79) rotate(-180)"/>
</clipPath>
</defs>
</svg>
