<svg width="48" height="48" viewBox="0 0 48 48" fill="none" xmlns="http://www.w3.org/2000/svg">
<path d="M42.9 29.5049C42.49 30.9049 41.94 32.2349 41.25 33.4749L44.39 37.5349L37.53 44.405L33.48 41.255C32.23 41.945 30.9 42.495 29.4899 42.895L28.8399 47.995H19.1499L18.4999 42.905C17.0899 42.495 15.7699 41.945 14.5299 41.255L10.4599 44.405L3.6 37.5349L6.74 33.4749C6.05 32.2349 5.5 30.905 5.08 29.5049L0 28.8449V19.1449L5.08 18.4949C5.5 17.1049 6.05 15.7749 6.74 14.5249L3.6 10.4549L10.46 3.59488L14.53 6.74488C15.77 6.04488 17.09 5.50488 18.5 5.09488L19.15 0.00488281H28.84L29.49 5.09488C30.9 5.50488 32.2301 6.04488 33.4801 6.74488L37.5301 3.59488L44.3901 10.4549L41.2501 14.5349C41.9401 15.775 42.4901 17.1049 42.9001 18.4949L48.0001 19.1449V28.8449L42.9 29.5049Z" fill="url(#paint0_linear_302_12632)"/>
<path d="M38.3672 23.995C38.3672 30.755 33.6972 36.435 27.4072 37.965C26.3172 38.235 25.1772 38.375 23.9972 38.375C22.8472 38.375 21.7172 38.235 20.6472 37.985C14.3172 36.475 9.61719 30.785 9.61719 23.995C9.61719 16.065 16.0572 9.625 23.9972 9.625C31.9272 9.625 38.3672 16.065 38.3672 23.995Z" fill="#0D0A12"/>
<path d="M27.3713 27.7147L27.4112 37.9647C26.3212 38.2347 25.1812 38.3747 24.0012 38.3747C22.8512 38.3747 21.7212 38.2347 20.6512 37.9847L20.6112 27.7147C18.3312 26.5047 16.7812 24.1047 16.7812 21.3447C16.7812 19.1147 17.7812 17.1347 19.3612 15.8147V21.0547C19.4788 21.1256 24.2888 24.0241 23.9911 23.8447C24.0914 23.7842 28.9087 20.875 28.6112 21.0547V15.8047C30.2013 17.1247 31.2112 19.1147 31.2112 21.3447C31.2112 24.1047 29.6512 26.5047 27.3713 27.7147Z" fill="url(#paint1_linear_302_12632)"/>
<defs>
<linearGradient id="paint0_linear_302_12632" x1="-1.26373e-06" y1="-3.99429" x2="48.1629" y2="7.2508" gradientUnits="userSpaceOnUse">
<stop stop-color="#7B39FE"/>
<stop offset="1" stop-color="#CB42AD"/>
</linearGradient>
<linearGradient id="paint1_linear_302_12632" x1="16.7812" y1="13.9239" x2="31.7168" y2="16.1529" gradientUnits="userSpaceOnUse">
<stop stop-color="#7B39FE"/>
<stop offset="1" stop-color="#CB42AD"/>
</linearGradient>
</defs>
</svg>
