<svg width="42" height="42" viewBox="0 0 42 42" fill="none" xmlns="http://www.w3.org/2000/svg">
<g filter="url(#filter0_b_83_7322)">
<circle cx="21" cy="21" r="20" fill="url(#paint0_linear_83_7322)"/>
<circle cx="21" cy="21" r="20" stroke="url(#paint1_linear_83_7322)"/>
</g>
<path d="M27.9309 14.3263C26.6562 13.7125 25.2892 13.2602 23.86 13.0011C23.834 12.9961 23.8079 13.0086 23.7945 13.0336C23.6187 13.3618 23.424 13.7899 23.2876 14.1264C21.7504 13.8848 20.221 13.8848 18.7153 14.1264C18.5789 13.7824 18.3771 13.3618 18.2005 13.0336C18.1871 13.0094 18.1611 12.9969 18.1351 13.0011C16.7066 13.2593 15.3397 13.7116 14.0641 14.3263C14.0531 14.3313 14.0436 14.3397 14.0373 14.3505C11.4445 18.4161 10.7342 22.3818 11.0826 26.2983C11.0842 26.3175 11.0945 26.3358 11.1087 26.3475C12.8193 27.666 14.4764 28.4665 16.1027 28.9971C16.1287 29.0054 16.1563 28.9954 16.1729 28.9729C16.5576 28.4215 16.9005 27.8401 17.1945 27.2287C17.2119 27.1929 17.1953 27.1505 17.1598 27.1363C16.6159 26.9197 16.098 26.6557 15.5997 26.3558C15.5603 26.3317 15.5571 26.2725 15.5934 26.2442C15.6983 26.1617 15.8032 26.0759 15.9033 25.9893C15.9214 25.9735 15.9466 25.9702 15.9679 25.9801C19.2411 27.5486 22.7846 27.5486 26.0191 25.9801C26.0404 25.9693 26.0656 25.9727 26.0845 25.9884C26.1847 26.0751 26.2895 26.1617 26.3952 26.2442C26.4314 26.2725 26.429 26.3316 26.3897 26.3558C25.8914 26.6615 25.3735 26.9197 24.8288 27.1354C24.7933 27.1496 24.7775 27.1929 24.7949 27.2287C25.0952 27.8392 25.4382 28.4206 25.8158 28.9721C25.8315 28.9954 25.8599 29.0054 25.8859 28.997C27.5201 28.4665 29.1772 27.666 30.8879 26.3474C30.9029 26.3358 30.9123 26.3183 30.9139 26.2991C31.3309 21.7712 30.2154 17.838 27.9568 14.3513C27.9514 14.3397 27.9419 14.3313 27.9309 14.3263ZM17.6834 23.9136C16.698 23.9136 15.886 22.9641 15.886 21.7979C15.886 20.6317 16.6822 19.6822 17.6834 19.6822C18.6924 19.6822 19.4966 20.6401 19.4808 21.7979C19.4808 22.9641 18.6845 23.9136 17.6834 23.9136ZM24.329 23.9136C23.3436 23.9136 22.5316 22.9641 22.5316 21.7979C22.5316 20.6317 23.3278 19.6822 24.329 19.6822C25.3381 19.6822 26.1422 20.6401 26.1264 21.7979C26.1264 22.9641 25.3381 23.9136 24.329 23.9136Z" fill="url(#paint2_linear_83_7322)"/>
<defs>
<filter id="filter0_b_83_7322" x="-3.5" y="-3.5" width="49" height="49" filterUnits="userSpaceOnUse" color-interpolation-filters="sRGB">
<feFlood flood-opacity="0" result="BackgroundImageFix"/>
<feGaussianBlur in="BackgroundImageFix" stdDeviation="2"/>
<feComposite in2="SourceAlpha" operator="in" result="effect1_backgroundBlur_83_7322"/>
<feBlend mode="normal" in="SourceGraphic" in2="effect1_backgroundBlur_83_7322" result="shape"/>
</filter>
<linearGradient id="paint0_linear_83_7322" x1="21" y1="18.4" x2="21" y2="45.3333" gradientUnits="userSpaceOnUse">
<stop stop-color="#7B39FE" stop-opacity="0"/>
<stop offset="0.994792" stop-color="#DD0DAC" stop-opacity="0.2"/>
</linearGradient>
<linearGradient id="paint1_linear_83_7322" x1="0.999999" y1="-3.12796" x2="51.9639" y2="9.10632" gradientUnits="userSpaceOnUse">
<stop stop-color="#CB42AD" stop-opacity="0.1"/>
<stop offset="0.619792" stop-color="#7B39FE"/>
<stop offset="1" stop-color="#CB42AD" stop-opacity="0.1"/>
</linearGradient>
<linearGradient id="paint2_linear_83_7322" x1="11" y1="11.6667" x2="30.5014" y2="17.357" gradientUnits="userSpaceOnUse">
<stop stop-color="#7B39FE"/>
<stop offset="1" stop-color="#CB42AD"/>
</linearGradient>
</defs>
</svg>
