<svg width="30" height="30" viewBox="0 0 30 30" fill="none" xmlns="http://www.w3.org/2000/svg">
<path d="M23.6636 6.65791C22.0702 5.89057 20.3615 5.3252 18.575 5.00136C18.5424 4.99511 18.5099 5.01074 18.4932 5.04195C18.2734 5.45219 18.03 5.98733 17.8595 6.40797C15.938 6.10602 14.0263 6.10602 12.1441 6.40797C11.9736 5.978 11.7214 5.45219 11.5006 5.04195C11.4839 5.01176 11.4514 4.99613 11.4188 5.00136C9.6333 5.32412 7.9246 5.88949 6.33017 6.65791C6.31635 6.66416 6.30453 6.67457 6.29667 6.6881C3.05565 11.7701 2.16776 16.7273 2.60331 21.6229C2.60526 21.6469 2.6181 21.6698 2.63583 21.6843C4.77416 23.3325 6.84555 24.3331 8.87841 24.9964C8.91093 25.0068 8.94541 24.9943 8.96611 24.9662C9.44697 24.2769 9.87563 23.5502 10.2432 22.7859C10.2648 22.7412 10.2441 22.6881 10.1998 22.6704C9.51987 22.3997 8.87246 22.0696 8.24965 21.6948C8.20039 21.6646 8.19643 21.5907 8.24179 21.5552C8.37285 21.4522 8.50395 21.3449 8.6291 21.2366C8.65175 21.2168 8.6833 21.2127 8.70991 21.2251C12.8013 23.1858 17.2308 23.1858 21.2739 21.2251C21.3005 21.2116 21.332 21.2158 21.3557 21.2356C21.4809 21.3438 21.6119 21.4521 21.744 21.5552C21.7893 21.5906 21.7863 21.6646 21.7371 21.6947C21.1143 22.0768 20.4669 22.3996 19.7859 22.6693C19.7416 22.687 19.7219 22.7411 19.7436 22.7859C20.1191 23.5491 20.5477 24.2758 21.0197 24.9651C21.0394 24.9943 21.0749 25.0068 21.1074 24.9963C23.1501 24.3331 25.2215 23.3325 27.3598 21.6843C27.3786 21.6697 27.3904 21.6478 27.3924 21.6239C27.9136 15.964 26.5193 11.0475 23.6961 6.68907C23.6892 6.67457 23.6774 6.66416 23.6636 6.65791ZM10.8542 18.642C9.62246 18.642 8.60747 17.4551 8.60747 15.9974C8.60747 14.5396 9.60273 13.3527 10.8542 13.3527C12.1155 13.3527 13.1207 14.5501 13.101 15.9974C13.101 17.4551 12.1057 18.642 10.8542 18.642ZM19.1612 18.642C17.9295 18.642 16.9145 17.4551 16.9145 15.9974C16.9145 14.5396 17.9098 13.3527 19.1612 13.3527C20.4226 13.3527 21.4277 14.5501 21.408 15.9974C21.408 17.4551 20.4226 18.642 19.1612 18.642Z" fill="url(#paint0_linear_116_3054)"/>
<defs>
<linearGradient id="paint0_linear_116_3054" x1="2.5" y1="3.33334" x2="26.8768" y2="10.4462" gradientUnits="userSpaceOnUse">
<stop stop-color="#7B39FE"/>
<stop offset="1" stop-color="#CB42AD"/>
</linearGradient>
</defs>
</svg>
