<svg width="44" height="32" viewBox="0 0 44 32" fill="none" xmlns="http://www.w3.org/2000/svg">
<path d="M42.1609 12.3C41.2141 5.45781 35.5328 0.375 28.8344 0.375H15.1656C8.46719 0.375 2.7875 5.45781 1.83906 12.3C1.73125 13.0797 0.125 24.4 0.125 25.1875C0.125 28.7422 2.91875 31.625 6.36406 31.625C8.72812 31.625 10.8875 30.2469 11.9453 28.0656L15.75 20.6875H28.25L32.0547 28.0656C33.1109 30.2469 35.2719 31.625 37.6359 31.625C41.0812 31.625 43.875 28.7422 43.875 25.1875C43.875 24.4 42.2687 13.0797 42.1609 12.3ZM31.375 5.0625C32.525 5.0625 33.4578 5.99531 33.4578 7.14531C33.4578 8.29531 32.525 9.22813 31.375 9.22813C30.225 9.22813 29.2922 8.29531 29.2922 7.14531C29.2922 5.99531 30.225 5.0625 31.375 5.0625ZM17.3125 12.875H14.1875V16H11.0625V12.875H7.9375V9.75H11.0625V6.625H14.1875V9.75H17.3125V12.875ZM27.2078 13.3953C26.0578 13.3953 25.125 12.4625 25.125 11.3125C25.125 10.1625 26.0578 9.22969 27.2078 9.22969C28.3578 9.22969 29.2906 10.1625 29.2906 11.3125C29.2922 12.4625 28.3594 13.3953 27.2078 13.3953ZM31.375 17.5625C30.225 17.5625 29.2922 16.6297 29.2922 15.4797C29.2922 14.3297 30.225 13.3969 31.375 13.3969C32.525 13.3969 33.4578 14.3297 33.4578 15.4797C33.4578 16.6297 32.525 17.5625 31.375 17.5625ZM35.5422 13.3953C34.3922 13.3953 33.4594 12.4625 33.4594 11.3125C33.4594 10.1625 34.3922 9.22969 35.5422 9.22969C36.6922 9.22969 37.625 10.1625 37.625 11.3125C37.625 12.4625 36.6922 13.3953 35.5422 13.3953Z" fill="url(#paint0_linear_302_12623)"/>
<defs>
<linearGradient id="paint0_linear_302_12623" x1="0.124999" y1="-2.22916" x2="41.9495" y2="11.4393" gradientUnits="userSpaceOnUse">
<stop stop-color="#7B39FE"/>
<stop offset="1" stop-color="#CB42AD"/>
</linearGradient>
</defs>
</svg>
