<svg width="42" height="42" viewBox="0 0 42 42" fill="none" xmlns="http://www.w3.org/2000/svg">
<g filter="url(#filter0_b_83_7342)">
<circle cx="21" cy="21" r="20" fill="url(#paint0_linear_83_7342)"/>
<circle cx="21" cy="21" r="20" stroke="url(#paint1_linear_83_7342)"/>
</g>
<path d="M17.6209 30.6001C18.3037 30.6001 18.4899 30.3308 18.4899 29.9992C18.4899 29.7023 18.4794 28.916 18.4741 27.8742C14.9362 28.6278 14.1901 26.1976 14.1901 26.1976C13.6114 24.7552 12.775 24.3692 12.775 24.3692C11.623 23.5945 12.8641 23.6104 12.8641 23.6104C14.1414 23.6972 14.8122 24.8982 14.8122 24.8982C15.9462 26.8091 17.7894 26.2571 18.5166 25.9379C18.631 25.1291 18.9586 24.579 19.322 24.2665C16.4974 23.9538 13.5286 22.8791 13.5286 18.0906C13.5286 16.7264 14.0216 15.6116 14.8376 14.7371C14.6946 14.4212 14.2652 13.1504 14.949 11.4292C14.949 11.4292 16.0141 11.0941 18.4465 12.7105C19.4641 12.4328 20.545 12.2951 21.6262 12.2886C22.7074 12.2948 23.7884 12.4328 24.806 12.7105C27.2226 11.0941 28.2877 11.4292 28.2877 11.4292C28.9712 13.1504 28.5421 14.4212 28.4149 14.7371C29.2256 15.6114 29.7186 16.7264 29.7186 18.0906C29.7186 22.8918 26.7457 23.9485 23.9156 24.256C24.3608 24.6311 24.7741 25.3974 24.7741 26.5686C24.7741 28.2412 24.7582 29.5852 24.7582 29.991C24.7582 30.3186 24.8998 30.5845 25.6326 30.5845L17.6209 30.6001Z" fill="url(#paint2_linear_83_7342)"/>
<defs>
<filter id="filter0_b_83_7342" x="-3.5" y="-3.5" width="49" height="49" filterUnits="userSpaceOnUse" color-interpolation-filters="sRGB">
<feFlood flood-opacity="0" result="BackgroundImageFix"/>
<feGaussianBlur in="BackgroundImageFix" stdDeviation="2"/>
<feComposite in2="SourceAlpha" operator="in" result="effect1_backgroundBlur_83_7342"/>
<feBlend mode="normal" in="SourceGraphic" in2="effect1_backgroundBlur_83_7342" result="shape"/>
</filter>
<linearGradient id="paint0_linear_83_7342" x1="21" y1="18.4" x2="21" y2="45.3333" gradientUnits="userSpaceOnUse">
<stop stop-color="#7B39FE" stop-opacity="0"/>
<stop offset="0.994792" stop-color="#DD0DAC" stop-opacity="0.2"/>
</linearGradient>
<linearGradient id="paint1_linear_83_7342" x1="0.999999" y1="-3.12796" x2="51.9639" y2="9.10632" gradientUnits="userSpaceOnUse">
<stop stop-color="#CB42AD" stop-opacity="0.1"/>
<stop offset="0.619792" stop-color="#7B39FE"/>
<stop offset="1" stop-color="#CB42AD" stop-opacity="0.1"/>
</linearGradient>
<linearGradient id="paint2_linear_83_7342" x1="12.2852" y1="9.80041" x2="29.9382" y2="13.5421" gradientUnits="userSpaceOnUse">
<stop stop-color="#7B39FE"/>
<stop offset="1" stop-color="#CB42AD"/>
</linearGradient>
</defs>
</svg>
