<svg width="30" height="30" viewBox="0 0 30 30" fill="none" xmlns="http://www.w3.org/2000/svg">
<path d="M9.56172 26.1373C9.52422 26.1373 9.47422 26.1623 9.43672 26.1623C7.01172 24.9623 5.03672 22.9748 3.82422 20.5498C3.82422 20.5123 3.84922 20.4623 3.84922 20.4248C5.37422 20.8748 6.94922 21.2123 8.51172 21.4748C8.78672 23.0498 9.11172 24.6123 9.56172 26.1373Z" fill="url(#paint0_linear_357_275)"/>
<path d="M26.1758 20.5623C24.9383 23.0498 22.8758 25.0623 20.3633 26.2748C20.8383 24.6873 21.2383 23.0873 21.5008 21.4748C23.0758 21.2123 24.6258 20.8748 26.1508 20.4248C26.1383 20.4748 26.1758 20.5248 26.1758 20.5623Z" fill="url(#paint1_linear_357_275)"/>
<path d="M26.2758 9.63711C24.7008 9.16211 23.1133 8.77461 21.5008 8.49961C21.2383 6.88711 20.8508 5.28711 20.3633 3.72461C22.9508 4.96211 25.0383 7.04961 26.2758 9.63711Z" fill="url(#paint2_linear_357_275)"/>
<path d="M9.56406 3.8627C9.11406 5.3877 8.78906 6.9377 8.52656 8.5127C6.91406 8.7627 5.31406 9.1627 3.72656 9.6377C4.93906 7.1252 6.95156 5.0627 9.43906 3.8252C9.47656 3.8252 9.52656 3.8627 9.56406 3.8627Z" fill="url(#paint3_linear_357_275)"/>
<path d="M19.3617 8.2375C16.4617 7.9125 13.5367 7.9125 10.6367 8.2375C10.9492 6.525 11.3492 4.8125 11.9117 3.1625C11.9367 3.0625 11.9242 2.9875 11.9367 2.8875C12.9242 2.65 13.9367 2.5 14.9992 2.5C16.0492 2.5 17.0742 2.65 18.0492 2.8875C18.0617 2.9875 18.0617 3.0625 18.0867 3.1625C18.6492 4.825 19.0492 6.525 19.3617 8.2375Z" fill="url(#paint4_linear_357_275)"/>
<path d="M8.2375 19.3627C6.5125 19.0502 4.8125 18.6502 3.1625 18.0877C3.0625 18.0627 2.9875 18.0752 2.8875 18.0627C2.65 17.0752 2.5 16.0627 2.5 15.0002C2.5 13.9502 2.65 12.9252 2.8875 11.9502C2.9875 11.9377 3.0625 11.9377 3.1625 11.9127C4.825 11.3627 6.5125 10.9502 8.2375 10.6377C7.925 13.5377 7.925 16.4627 8.2375 19.3627Z" fill="url(#paint5_linear_357_275)"/>
<path d="M27.4992 15.0002C27.4992 16.0627 27.3492 17.0752 27.1117 18.0627C27.0117 18.0752 26.9367 18.0627 26.8367 18.0877C25.1742 18.6377 23.4742 19.0502 21.7617 19.3627C22.0867 16.4627 22.0867 13.5377 21.7617 10.6377C23.4742 10.9502 25.1867 11.3502 26.8367 11.9127C26.9367 11.9377 27.0117 11.9502 27.1117 11.9502C27.3492 12.9377 27.4992 13.9502 27.4992 15.0002Z" fill="url(#paint6_linear_357_275)"/>
<path d="M19.3617 21.7627C19.0492 23.4877 18.6492 25.1877 18.0867 26.8377C18.0617 26.9377 18.0617 27.0127 18.0492 27.1127C17.0742 27.3502 16.0492 27.5002 14.9992 27.5002C13.9367 27.5002 12.9242 27.3502 11.9367 27.1127C11.9242 27.0127 11.9367 26.9377 11.9117 26.8377C11.3617 25.1752 10.9492 23.4877 10.6367 21.7627C12.0867 21.9252 13.5367 22.0377 14.9992 22.0377C16.4617 22.0377 17.9242 21.9252 19.3617 21.7627Z" fill="url(#paint7_linear_357_275)"/>
<path d="M19.7042 19.7042C16.5778 20.0986 13.4222 20.0986 10.2958 19.7042C9.90139 16.5778 9.90139 13.4222 10.2958 10.2958C13.4222 9.90139 16.5778 9.90139 19.7042 10.2958C20.0986 13.4222 20.0986 16.5778 19.7042 19.7042Z" fill="url(#paint8_linear_357_275)"/>
<defs>
<linearGradient id="paint0_linear_357_275" x1="3.82422" y1="19.9467" x2="9.5813" y2="21.2906" gradientUnits="userSpaceOnUse">
<stop stop-color="#7B39FE"/>
<stop offset="1" stop-color="#CB42AD"/>
</linearGradient>
<linearGradient id="paint1_linear_357_275" x1="20.3633" y1="19.9373" x2="26.1995" y2="21.2909" gradientUnits="userSpaceOnUse">
<stop stop-color="#7B39FE"/>
<stop offset="1" stop-color="#CB42AD"/>
</linearGradient>
<linearGradient id="paint2_linear_357_275" x1="20.3633" y1="3.2319" x2="26.296" y2="4.61678" gradientUnits="userSpaceOnUse">
<stop stop-color="#7B39FE"/>
<stop offset="1" stop-color="#CB42AD"/>
</linearGradient>
<linearGradient id="paint3_linear_357_275" x1="3.72656" y1="3.34082" x2="9.58137" y2="4.7134" gradientUnits="userSpaceOnUse">
<stop stop-color="#7B39FE"/>
<stop offset="1" stop-color="#CB42AD"/>
</linearGradient>
<linearGradient id="paint4_linear_357_275" x1="10.6367" y1="2.02188" x2="18.8354" y2="4.93224" gradientUnits="userSpaceOnUse">
<stop stop-color="#7B39FE"/>
<stop offset="1" stop-color="#CB42AD"/>
</linearGradient>
<linearGradient id="paint5_linear_357_275" x1="2.5" y1="9.91061" x2="8.43103" y2="10.821" gradientUnits="userSpaceOnUse">
<stop stop-color="#7B39FE"/>
<stop offset="1" stop-color="#CB42AD"/>
</linearGradient>
<linearGradient id="paint6_linear_357_275" x1="21.7617" y1="9.91061" x2="27.6927" y2="10.821" gradientUnits="userSpaceOnUse">
<stop stop-color="#7B39FE"/>
<stop offset="1" stop-color="#CB42AD"/>
</linearGradient>
<linearGradient id="paint7_linear_357_275" x1="10.6367" y1="21.2846" x2="18.8354" y2="24.1949" gradientUnits="userSpaceOnUse">
<stop stop-color="#7B39FE"/>
<stop offset="1" stop-color="#CB42AD"/>
</linearGradient>
<linearGradient id="paint8_linear_357_275" x1="10" y1="9.16667" x2="20.0341" y2="11.509" gradientUnits="userSpaceOnUse">
<stop stop-color="#7B39FE"/>
<stop offset="1" stop-color="#CB42AD"/>
</linearGradient>
</defs>
</svg>
