<svg width="24" height="24" viewBox="0 0 24 24" fill="none" xmlns="http://www.w3.org/2000/svg">
<path d="M20.8989 9.85L21.4889 19.74C21.5089 20.01 21.3789 20.19 21.3089 20.27C21.2289 20.36 21.0589 20.5 20.7789 20.5H18.0489L20.2089 9.85H20.8989ZM21.9989 6L21.9889 6.02C22.0089 6.26 21.9889 6.51 21.9289 6.76L14.5589 20.29C14.3189 21.3 13.4189 22 12.3789 22H20.7789C22.0689 22 23.0889 20.91 22.9889 19.62L21.9989 6Z" fill="white"/>
<path d="M11.4483 2.24039C11.5483 1.84039 11.2983 1.43039 10.8983 1.33039C10.4983 1.24039 10.0883 1.48039 9.98828 1.88039L9.48828 3.95039H11.0283L11.4483 2.24039Z" fill="white"/>
<path d="M18.0489 2.20957C18.1389 1.79957 17.8789 1.40957 17.4689 1.31957C17.0689 1.22957 16.6689 1.48957 16.5789 1.89957L16.1289 3.96957H17.6689L18.0489 2.20957Z" fill="white"/>
<path d="M21.8198 5.33043C21.4898 4.53043 20.7098 3.96043 19.7498 3.96043H17.6698L17.1098 6.55043C17.0298 6.90043 16.7198 7.14043 16.3798 7.14043C16.3298 7.14043 16.2698 7.14043 16.2198 7.12043C15.8198 7.03043 15.5598 6.63043 15.6398 6.23043L16.1298 3.95043H11.0298L10.3998 6.55043C10.3198 6.89043 10.0098 7.12043 9.66975 7.12043C9.60975 7.12043 9.54975 7.11043 9.48975 7.10043C9.08975 7.00043 8.83975 6.60043 8.93975 6.19043L9.47975 3.94043H7.44975C6.46975 3.94043 5.59975 4.58043 5.30975 5.52043L1.09975 19.0704C0.659754 20.5204 1.72975 22.0004 3.23975 22.0004H16.3798C17.4198 22.0004 18.3198 21.3004 18.5598 20.2904L21.9298 6.76043C21.9898 6.51043 22.0098 6.26043 21.9898 6.02043C21.9698 5.78043 21.9198 5.54043 21.8198 5.33043ZM14.6998 16.7504H6.69975C6.28975 16.7504 5.94975 16.4104 5.94975 16.0004C5.94975 15.5904 6.28975 15.2504 6.69975 15.2504H14.6998C15.1098 15.2504 15.4498 15.5904 15.4498 16.0004C15.4498 16.4104 15.1098 16.7504 14.6998 16.7504ZM15.6998 12.7504H7.69975C7.28975 12.7504 6.94975 12.4104 6.94975 12.0004C6.94975 11.5904 7.28975 11.2504 7.69975 11.2504H15.6998C16.1098 11.2504 16.4498 11.5904 16.4498 12.0004C16.4498 12.4104 16.1098 12.7504 15.6998 12.7504Z" fill="white"/>
</svg>
