<svg width="42" height="42" viewBox="0 0 42 42" fill="none" xmlns="http://www.w3.org/2000/svg">
<g filter="url(#filter0_b_83_7331)">
<circle cx="21" cy="21" r="20" fill="url(#paint0_linear_83_7331)"/>
<circle cx="21" cy="21" r="20" stroke="url(#paint1_linear_83_7331)"/>
</g>
<path d="M26.8137 14.7007C26.546 14.7007 26.3281 14.9185 26.3281 15.1862C26.3281 15.4539 26.546 15.6718 26.8137 15.6718C27.0814 15.6718 27.2992 15.454 27.2992 15.1862C27.2992 14.9185 27.0814 14.7007 26.8137 14.7007Z" fill="url(#paint2_linear_83_7331)"/>
<path d="M21.0038 16.6953C18.6302 16.6953 16.6992 18.6263 16.6992 20.9998C16.6992 23.3734 18.6302 25.3044 21.0038 25.3044C23.3773 25.3044 25.3083 23.3734 25.3083 20.9999C25.3083 18.6264 23.3773 16.6953 21.0038 16.6953Z" fill="url(#paint3_linear_83_7331)"/>
<path d="M25.5173 11H16.4827C13.4595 11 11 13.4595 11 16.4827V25.5173C11 28.5405 13.4595 31 16.4827 31H25.5173C28.5405 31 31 28.5405 31 25.5173V16.4827C31 13.4595 28.5405 11 25.5173 11ZM21 26.4856C17.9752 26.4856 15.5144 24.0248 15.5144 21C15.5144 17.9752 17.9752 15.5145 21 15.5145C24.0248 15.5145 26.4856 17.9752 26.4856 21C26.4856 24.0248 24.0248 26.4856 21 26.4856ZM26.8137 16.853C25.8947 16.853 25.1471 16.1053 25.1471 15.1863C25.1471 14.2673 25.8947 13.5196 26.8137 13.5196C27.7327 13.5196 28.4804 14.2673 28.4804 15.1863C28.4804 16.1053 27.7327 16.853 26.8137 16.853Z" fill="url(#paint4_linear_83_7331)"/>
<defs>
<filter id="filter0_b_83_7331" x="-3.5" y="-3.5" width="49" height="49" filterUnits="userSpaceOnUse" color-interpolation-filters="sRGB">
<feFlood flood-opacity="0" result="BackgroundImageFix"/>
<feGaussianBlur in="BackgroundImageFix" stdDeviation="2"/>
<feComposite in2="SourceAlpha" operator="in" result="effect1_backgroundBlur_83_7331"/>
<feBlend mode="normal" in="SourceGraphic" in2="effect1_backgroundBlur_83_7331" result="shape"/>
</filter>
<linearGradient id="paint0_linear_83_7331" x1="21" y1="18.4" x2="21" y2="45.3333" gradientUnits="userSpaceOnUse">
<stop stop-color="#7B39FE" stop-opacity="0"/>
<stop offset="0.994792" stop-color="#DD0DAC" stop-opacity="0.2"/>
</linearGradient>
<linearGradient id="paint1_linear_83_7331" x1="0.999999" y1="-3.12796" x2="51.9639" y2="9.10632" gradientUnits="userSpaceOnUse">
<stop stop-color="#CB42AD" stop-opacity="0.1"/>
<stop offset="0.619792" stop-color="#7B39FE"/>
<stop offset="1" stop-color="#CB42AD" stop-opacity="0.1"/>
</linearGradient>
<linearGradient id="paint2_linear_83_7331" x1="26.3281" y1="14.6198" x2="27.3025" y2="14.8472" gradientUnits="userSpaceOnUse">
<stop stop-color="#7B39FE"/>
<stop offset="1" stop-color="#CB42AD"/>
</linearGradient>
<linearGradient id="paint3_linear_83_7331" x1="16.6992" y1="15.9779" x2="25.3377" y2="17.9944" gradientUnits="userSpaceOnUse">
<stop stop-color="#7B39FE"/>
<stop offset="1" stop-color="#CB42AD"/>
</linearGradient>
<linearGradient id="paint4_linear_83_7331" x1="11" y1="9.33334" x2="31.0682" y2="14.0179" gradientUnits="userSpaceOnUse">
<stop stop-color="#7B39FE"/>
<stop offset="1" stop-color="#CB42AD"/>
</linearGradient>
</defs>
</svg>
