<svg width="46" height="44" viewBox="0 0 46 44" fill="none" xmlns="http://www.w3.org/2000/svg">
<path fill-rule="evenodd" clip-rule="evenodd" d="M22.9975 34.7205C19.4788 34.7205 16.3225 33.0164 14.1288 30.333C13.7496 29.8685 13.1371 29.6622 12.5559 29.8018L5.14545 31.5768C3.82461 31.8914 2.7892 32.9143 2.45795 34.231L0.649615 41.4101C0.530865 41.8768 0.635031 42.3726 0.930865 42.7518C1.22878 43.131 1.68295 43.3539 2.1642 43.3539H43.8309C44.3121 43.3539 44.7663 43.133 45.0621 42.7539C45.3579 42.3747 45.4642 41.8789 45.3475 41.4122L43.5684 34.3039C43.2392 32.9872 42.2059 31.9622 40.8871 31.6435L33.4121 29.8393C32.8309 29.6997 32.2204 29.9039 31.8392 30.3664C29.6475 33.031 26.5017 34.7205 22.9975 34.7205Z" fill="url(#paint0_linear_302_12644)"/>
<path fill-rule="evenodd" clip-rule="evenodd" d="M32.3724 8.97852H13.6224C11.6078 8.97852 9.97656 10.6118 9.97656 12.6243V17.8327C9.97656 19.8452 11.6078 21.4785 13.6224 21.4785H32.3724C34.387 21.4785 36.0182 19.8452 36.0182 17.8327V12.6243C36.0182 10.6118 34.387 8.97852 32.3724 8.97852ZM16.7474 16.791H18.8307C19.6932 16.791 20.3932 16.091 20.3932 15.2285C20.3932 14.366 19.6932 13.666 18.8307 13.666H16.7474C15.8849 13.666 15.1849 14.366 15.1849 15.2285C15.1849 16.091 15.8849 16.791 16.7474 16.791Z" fill="url(#paint1_linear_302_12644)"/>
<path fill-rule="evenodd" clip-rule="evenodd" d="M12.9156 23.5184C14.5781 27.8476 18.4906 30.8538 23.001 30.8538C27.5115 30.8538 31.424 27.8476 33.0865 23.5184C32.8552 23.5476 13.1469 23.5476 12.9156 23.5184ZM12.6719 6.97468C12.9823 6.92259 33.0198 6.92259 33.3302 6.97468C32.8865 5.72259 32.2135 4.57259 31.3406 3.60384C29.6281 1.69967 27.299 0.645508 24.876 0.645508C23.6406 0.645508 22.3594 0.645508 21.1219 0.645508C18.701 0.645508 16.3719 1.69967 14.6594 3.60176C13.7885 4.57259 13.1135 5.72259 12.6719 6.97468Z" fill="url(#paint2_linear_302_12644)"/>
<defs>
<linearGradient id="paint0_linear_302_12644" x1="0.601561" y1="28.6259" x2="30.381" y2="51.5292" gradientUnits="userSpaceOnUse">
<stop stop-color="#7B39FE"/>
<stop offset="1" stop-color="#CB42AD"/>
</linearGradient>
<linearGradient id="paint1_linear_302_12644" x1="9.97656" y1="7.93685" x2="32.2607" y2="18.774" gradientUnits="userSpaceOnUse">
<stop stop-color="#7B39FE"/>
<stop offset="1" stop-color="#CB42AD"/>
</linearGradient>
<linearGradient id="paint2_linear_302_12644" x1="12.6719" y1="-1.87185" x2="33.987" y2="1.5308" gradientUnits="userSpaceOnUse">
<stop stop-color="#7B39FE"/>
<stop offset="1" stop-color="#CB42AD"/>
</linearGradient>
</defs>
</svg>
