<svg width="70" height="70" viewBox="0 0 70 70" fill="none" xmlns="http://www.w3.org/2000/svg">
<g clip-path="url(#clip0_83_7310)">
<path d="M35 70C54.33 70 70 54.33 70 35C70 15.67 54.33 0 35 0C15.67 0 0 15.67 0 35C0 54.33 15.67 70 35 70Z" fill="#2081E2"/>
<path d="M17.2649 36.1759L17.4161 35.9386L26.5203 21.695C26.5506 21.6478 26.593 21.6097 26.6431 21.5846C26.6933 21.5596 26.7492 21.5485 26.8051 21.5526C26.861 21.5567 26.9148 21.5758 26.9608 21.6079C27.0067 21.64 27.0432 21.6838 27.0663 21.7349C28.5874 25.1439 29.8999 29.3831 29.2853 32.0228C29.0228 33.1085 28.3039 34.5792 27.4947 35.9386C27.3897 36.1367 27.2749 36.3306 27.1531 36.5175C27.1245 36.5599 27.0859 36.5945 27.0407 36.6183C26.9956 36.6422 26.9452 36.6544 26.8941 36.654H17.5309C17.2789 36.654 17.1319 36.381 17.2649 36.1759Z" fill="white"/>
<path d="M57.85 38.8227V41.0767C57.85 41.2069 57.7709 41.3217 57.6561 41.3721C56.9512 41.6745 54.5383 42.7819 53.5352 44.177C50.9746 47.74 49.0188 52.836 44.6459 52.836H26.4039C19.9387 52.836 14.6992 47.579 14.6992 41.0914V40.8835C14.6992 40.7106 14.8392 40.5706 15.0121 40.5706H25.1817C25.3826 40.5706 25.5303 40.7575 25.5121 40.9556C25.4405 41.6279 25.5668 42.3064 25.8754 42.9079C26.1711 43.506 26.6281 44.0095 27.1949 44.3616C27.7617 44.7136 28.4156 44.9001 29.0828 44.9001H34.1172V40.9696H29.1402C29.082 40.9689 29.025 40.9523 28.9754 40.9216C28.9259 40.891 28.8856 40.8474 28.859 40.7956C28.8324 40.7437 28.8204 40.6856 28.8243 40.6275C28.8282 40.5694 28.8479 40.5134 28.8812 40.4656C28.9358 40.383 28.9967 40.2976 29.0611 40.1996C29.7105 39.2649 30.3155 38.3002 30.8741 37.3086C31.3305 36.5106 31.7729 35.658 32.1285 34.8026C32.2006 34.6479 32.258 34.4897 32.3154 34.335C32.4127 34.062 32.5135 33.8065 32.5856 33.551C32.657 33.3354 32.7151 33.1086 32.7725 32.8965C32.9412 32.1699 33.0133 31.4006 33.0133 30.6026C33.0133 30.2897 32.9993 29.9621 32.9699 29.6492C32.9559 29.3076 32.9125 28.966 32.8691 28.6244C32.8357 28.318 32.789 28.0132 32.7291 27.7109C32.6542 27.2513 32.5584 26.7954 32.4421 26.3445L32.4022 26.1723C32.3154 25.8594 32.244 25.5612 32.1432 25.2483C31.8649 24.2905 31.5457 23.3451 31.1863 22.4147C31.0603 22.0584 30.9168 21.7168 30.7733 21.3752C30.5612 20.8607 30.3449 20.3938 30.1475 19.9514C30.0467 19.7498 29.9606 19.5664 29.8745 19.3795C29.7785 19.1692 29.6788 18.9606 29.5756 18.7537C29.5035 18.5997 29.4209 18.4555 29.3635 18.3113L28.7482 17.1752C28.7289 17.1408 28.7202 17.1015 28.7232 17.0622C28.7262 17.0229 28.7407 16.9854 28.7649 16.9543C28.7891 16.9232 28.822 16.8999 28.8593 16.8874C28.8967 16.8749 28.937 16.8737 28.975 16.884L32.8229 17.927H32.8334C32.8404 17.927 32.8446 17.9305 32.8474 17.9305L33.3549 18.0705L33.9121 18.2287L34.1172 18.2861V15.9992C34.1172 14.8953 35.002 14 36.0947 14C36.6414 14 37.1377 14.2226 37.494 14.5859C37.8496 14.9499 38.0729 15.4455 38.0729 15.9999V19.3942L38.4824 19.509C38.516 19.5195 38.5477 19.5353 38.5762 19.5559C38.677 19.6315 38.8212 19.7428 39.0039 19.8793C39.1481 19.9941 39.3028 20.1348 39.4897 20.2783C39.86 20.5772 40.3017 20.9615 40.7875 21.4039C40.917 21.5159 41.043 21.6307 41.1585 21.7455C41.8554 22.3869 42.5212 23.0613 43.1535 23.7664C43.3411 23.9785 43.5245 24.1941 43.7114 24.4209C43.8983 24.6512 44.0964 24.8773 44.2686 25.1041C44.4954 25.4065 44.7397 25.7194 44.9518 26.0463C45.0526 26.201 45.1674 26.3592 45.2647 26.5139C45.5377 26.9269 45.7785 27.3553 46.0088 27.783C46.1061 27.9811 46.2069 28.1967 46.293 28.4088C46.5485 28.9807 46.7494 29.5638 46.8789 30.1455C46.9188 30.2715 46.9475 30.408 46.9615 30.5305V30.5592C47.0049 30.7321 47.0196 30.9155 47.0336 31.1024C47.0933 31.702 47.0593 32.3073 46.9328 32.8965C46.8772 33.1511 46.8063 33.4022 46.7207 33.6483C46.6346 33.8933 46.5485 34.1481 46.4365 34.3889C46.2198 34.8984 45.9613 35.3892 45.6637 35.8561C45.5664 36.0283 45.4516 36.2117 45.3361 36.3846C45.2101 36.568 45.0813 36.7409 44.9658 36.9096C44.8076 37.1252 44.6389 37.352 44.466 37.5536C44.312 37.7657 44.1531 37.9778 43.9809 38.1647C43.7499 38.4408 43.5125 38.7115 43.269 38.9767C43.1248 39.1461 42.9701 39.319 42.8119 39.4737C42.6579 39.6459 42.499 39.8006 42.3555 39.9448C42.1147 40.1856 41.9131 40.3725 41.7444 40.5272L41.3489 40.8905C41.2901 40.9416 41.2148 40.9697 41.1368 40.9696H38.0722V44.9001H41.9271C42.787 44.8997 43.6184 44.5921 44.2714 44.0328C44.4982 43.8354 45.4866 42.9793 46.6556 41.6885C46.6948 41.6449 46.7459 41.6137 46.8026 41.5989L57.4503 38.5203C57.497 38.5072 57.5461 38.5051 57.5937 38.5142C57.6413 38.5233 57.6862 38.5432 57.7249 38.5725C57.7635 38.6018 57.7948 38.6396 57.8164 38.683C57.838 38.7264 57.85 38.7742 57.85 38.8227Z" fill="white"/>
</g>
<defs>
<clipPath id="clip0_83_7310">
<rect width="70" height="70" fill="white"/>
</clipPath>
</defs>
</svg>
