<svg width="50" height="50" viewBox="0 0 50 50" fill="none" xmlns="http://www.w3.org/2000/svg">
<path d="M42.1012 16.2917L26.0595 25.5833C25.4137 25.9583 24.6012 25.9583 23.9345 25.5833L7.89286 16.2917C6.74703 15.625 6.45536 14.0625 7.33036 13.0833C7.93453 12.3958 8.62203 11.8333 9.3512 11.4375L20.6429 5.1875C23.0595 3.83333 26.9762 3.83333 29.3929 5.1875L40.6845 11.4375C41.4137 11.8333 42.1012 12.4167 42.7054 13.0833C43.5387 14.0625 43.247 15.625 42.1012 16.2917Z" fill="url(#paint0_linear_350_208)"/>
<path d="M23.8151 29.4587V43.667C23.8151 45.2503 22.2109 46.292 20.7943 45.6045C16.5026 43.5003 9.27344 39.5628 9.27344 39.5628C6.73177 38.1253 4.64844 34.5003 4.64844 31.5212V20.7712C4.64844 19.1253 6.3776 18.0837 7.79427 18.8962L22.7734 27.5837C23.3984 27.9795 23.8151 28.6878 23.8151 29.4587Z" fill="url(#paint1_linear_350_208)"/>
<path d="M26.1875 29.4587V43.667C26.1875 45.2503 27.7917 46.292 29.2083 45.6045C33.5 43.5003 40.7292 39.5628 40.7292 39.5628C43.2708 38.1253 45.3542 34.5003 45.3542 31.5212V20.7712C45.3542 19.1253 43.625 18.0837 42.2083 18.8962L27.2292 27.5837C26.6042 27.9795 26.1875 28.6878 26.1875 29.4587Z" fill="url(#paint2_linear_350_208)"/>
<defs>
<linearGradient id="paint0_linear_350_208" x1="6.82031" y1="2.36415" x2="40.1866" y2="15.4202" gradientUnits="userSpaceOnUse">
<stop stop-color="#7B39FE"/>
<stop offset="1" stop-color="#CB42AD"/>
</linearGradient>
<linearGradient id="paint1_linear_350_208" x1="4.64844" y1="16.3471" x2="24.3944" y2="19.5944" gradientUnits="userSpaceOnUse">
<stop stop-color="#7B39FE"/>
<stop offset="1" stop-color="#CB42AD"/>
</linearGradient>
<linearGradient id="paint2_linear_350_208" x1="26.1875" y1="16.3471" x2="45.9335" y2="19.5944" gradientUnits="userSpaceOnUse">
<stop stop-color="#7B39FE"/>
<stop offset="1" stop-color="#CB42AD"/>
</linearGradient>
</defs>
</svg>
