<svg width="92" height="91" viewBox="0 0 92 91" fill="none" xmlns="http://www.w3.org/2000/svg">
<path d="M41.9154 0L43.3364 9.24746L41.0678 9.58911L39.9513 2.32324L35.0406 3.0628L34.7361 1.0812L41.9154 0Z" fill="white"/>
<path d="M26.3095 4.17472C27.1044 3.81766 27.866 3.64675 28.5943 3.66197C29.3182 3.68898 29.9574 3.8763 30.512 4.22391C31.0704 4.57964 31.4964 5.07794 31.7901 5.71882C32.0244 6.2299 32.1421 6.73464 32.1432 7.23303C32.1444 7.73142 32.0458 8.20616 31.8474 8.65724C31.649 9.10831 31.3616 9.5162 30.9853 9.88091C30.6089 10.2456 30.1585 10.5457 29.6341 10.7813C29.126 11.0096 28.6218 11.1382 28.1213 11.1674C27.6245 11.2047 27.1535 11.1472 26.7083 10.9951C26.2548 10.8466 25.851 10.6122 25.4967 10.292C25.1424 9.97183 24.8638 9.56873 24.6608 9.08274L24.4221 8.52963L30.3099 5.88484L31.1113 6.88953L26.5387 8.94351L26.6361 8.60628L26.7477 8.84965C26.8652 9.04142 27.039 9.18345 27.2691 9.27576C27.4909 9.37175 27.7411 9.41099 28.0197 9.39348C28.3019 9.38408 28.5865 9.31496 28.8733 9.18613C29.242 9.02048 29.5419 8.8124 29.773 8.56188C30.0077 8.31947 30.1513 8.03977 30.2036 7.72278C30.2478 7.40947 30.1843 7.06623 30.0133 6.69306C29.8497 6.33612 29.6123 6.06612 29.3011 5.88308C28.9817 5.70371 28.6105 5.61611 28.1875 5.62025C27.7563 5.62808 27.299 5.74058 26.8155 5.95776C26.3976 6.14549 26.0716 6.35061 25.8376 6.57311C25.5992 6.80741 25.4005 7.05315 25.2417 7.31036L23.7767 6.44237C23.9541 6.11809 24.1733 5.80932 24.4341 5.51606C24.6905 5.23459 24.98 4.98226 25.3026 4.75908C25.6133 4.53147 25.949 4.33668 26.3095 4.17472Z" fill="white"/>
<path d="M16.3502 10.5657C16.8903 10.1081 17.4644 9.82692 18.0726 9.72207C18.6807 9.61722 19.2824 9.67614 19.8776 9.89885C20.4718 10.1341 21.003 10.5225 21.4711 11.0639C21.945 11.6122 22.2471 12.1946 22.3774 12.8111C22.5077 13.4277 22.4701 14.0282 22.2647 14.6126C22.0583 15.2096 21.685 15.7369 21.1449 16.1945C20.8372 16.4552 20.5184 16.6549 20.1884 16.7938C19.8642 16.9395 19.5479 17.0257 19.2395 17.0525C18.9242 17.0851 18.6348 17.0723 18.3713 17.0141C18.101 16.9618 17.8693 16.865 17.6761 16.7237L18.035 16.4196L19.1409 17.6989L17.5205 19.0716L12.8603 13.6806L14.5114 12.2818L15.705 13.6626L15.3124 13.9072C15.2013 13.6965 15.1376 13.4515 15.1212 13.1722C15.1048 12.893 15.1407 12.5988 15.2288 12.2896C15.3169 11.9805 15.4557 11.6753 15.6453 11.3739C15.8281 11.0784 16.063 10.809 16.3502 10.5657ZM17.094 12.3099C16.7863 12.5706 16.5694 12.854 16.4433 13.1602C16.3103 13.4722 16.2729 13.7852 16.3312 14.0993C16.3886 14.4259 16.543 14.7348 16.7946 15.0258C17.0404 15.3101 17.3189 15.5021 17.6301 15.6019C17.9404 15.7142 18.2645 15.7328 18.6022 15.6577C18.9332 15.5884 19.2525 15.4234 19.5601 15.1628C19.8678 14.9021 20.0818 14.6153 20.2021 14.3023C20.3224 13.9894 20.3539 13.6695 20.2965 13.3429C20.2382 13.0288 20.0862 12.7297 19.8405 12.4454C19.5889 12.1543 19.3079 11.9527 18.9976 11.8403C18.6864 11.7406 18.3682 11.7287 18.0431 11.8048C17.718 11.8809 17.4016 12.0493 17.094 12.3099Z" fill="white"/>
<path d="M9.2807 18.1307L15.1893 22.1471L14.028 23.8215L11.9382 22.5144L12.4399 22.2396C12.7372 22.5821 12.949 22.9692 13.0753 23.4009C13.204 23.8449 13.2466 24.2792 13.2033 24.7036C13.1623 25.1404 13.0196 25.5351 12.7751 25.8876C12.6427 26.0785 12.4993 26.2458 12.3451 26.3895C12.1857 26.5406 12.0331 26.6583 11.8872 26.7428L10.276 24.9345C10.434 24.8798 10.6015 24.7721 10.7785 24.6114C10.9503 24.4581 11.1025 24.2859 11.2349 24.095C11.3826 23.882 11.4805 23.6622 11.5286 23.4355C11.579 23.2212 11.5819 23.0125 11.5372 22.8092C11.5 22.611 11.4265 22.426 11.3165 22.254C11.2015 22.0893 11.055 21.9465 10.8769 21.8255L8.05058 19.9042L9.2807 18.1307Z" fill="white"/>
<path d="M3.82137 27.372L10.5774 29.7413L9.89234 31.6559L8.29212 31.1656L8.32343 30.6378C8.61518 30.863 8.85443 31.1548 9.04119 31.5133C9.22495 31.8802 9.33404 32.2823 9.36847 32.7197C9.40838 33.1684 9.3487 33.6153 9.18945 34.0603C8.98512 34.6313 8.69784 35.074 8.3276 35.3884C7.95735 35.7027 7.52412 35.8863 7.02789 35.9391C6.54015 35.9949 6.00789 35.9216 5.4311 35.7193L1.34693 34.287L2.07259 32.2591L5.86412 33.5888C6.161 33.6929 6.43075 33.7261 6.67339 33.6883C6.91302 33.6589 7.12552 33.5586 7.31091 33.3874C7.4933 33.2245 7.63256 33.0087 7.72872 32.74C7.81285 32.5049 7.84706 32.2759 7.83135 32.053C7.82112 31.8415 7.77218 31.6448 7.68454 31.4628C7.60539 31.2839 7.49875 31.1283 7.36463 30.9962C7.22751 30.8725 7.07413 30.7809 6.90448 30.7215L3.10022 29.3873L3.45629 28.3923C3.55545 28.1152 3.63508 27.8926 3.69517 27.7247C3.75527 27.5567 3.79734 27.4392 3.82137 27.372Z" fill="white"/>
<path d="M0 48.2892L7.05776 47.0526L7.41532 49.0527L5.93844 49.3793L5.96326 48.9814C6.19631 49.0582 6.42234 49.1723 6.64136 49.324C6.86194 49.4843 7.05986 49.6713 7.23512 49.8849C7.4208 50.1057 7.57861 50.3494 7.70855 50.6161C7.83848 50.8829 7.93246 51.1785 7.99049 51.5031C8.05792 51.8803 8.06227 52.2369 8.00354 52.5729C7.94637 52.9176 7.80526 53.2273 7.5802 53.502C7.36401 53.7751 7.0498 54.0111 6.63757 54.2099L6.6131 53.7664L6.84459 53.8344C7.07348 53.9391 7.29379 54.0723 7.50551 54.2343C7.72766 54.4034 7.92793 54.6036 8.10633 54.8347C8.29358 55.0642 8.45296 55.3167 8.58446 55.5923C8.72482 55.8662 8.82245 56.1567 8.87734 56.4637C8.99182 57.1041 8.96108 57.6478 8.78511 58.0947C8.618 58.5402 8.33018 58.8982 7.92163 59.1688C7.51309 59.4394 7.0164 59.626 6.43158 59.7284L2.17831 60.4737L1.79958 58.3552L5.82689 57.6496C6.11044 57.5999 6.34627 57.5133 6.53439 57.3899C6.72251 57.2665 6.85327 57.1033 6.92667 56.9005C7.0105 56.7049 7.02732 56.4667 6.97713 56.186C6.93322 55.9404 6.85257 55.7193 6.73519 55.5227C6.61937 55.3349 6.47646 55.1745 6.30645 55.0415C6.14688 54.9156 5.96621 54.8251 5.76445 54.77C5.57311 54.7221 5.37111 54.7168 5.15845 54.7541L1.27735 55.4341L0.898613 53.3156L4.93921 52.6077C5.2139 52.5595 5.44452 52.4694 5.63107 52.3372C5.81763 52.205 5.94603 52.0287 6.01629 51.8083C6.09542 51.5863 6.10832 51.3262 6.055 51.028C6.01265 50.7911 5.92993 50.584 5.80682 50.4065C5.69413 50.2363 5.55436 50.0934 5.38749 49.9779C5.22948 49.8608 5.06367 49.7768 4.89006 49.7258C4.71802 49.6836 4.54782 49.6772 4.37946 49.7067L0.378735 50.4077L0 48.2892Z" fill="white"/>
<path d="M6.24909 68.1904C5.83905 67.4681 5.61651 66.7489 5.58146 66.0326C5.54642 65.3164 5.68169 64.6637 5.98728 64.0747C6.29287 63.4857 6.75945 63.0166 7.38701 62.6674C8.01458 62.3182 8.66192 62.1675 9.32905 62.2153C9.99619 62.2631 10.6297 62.488 11.2295 62.89C11.8294 63.292 12.3343 63.8541 12.7444 64.5763C13.15 65.2908 13.3681 66.0023 13.3988 66.7108C13.4338 67.4271 13.2985 68.0797 12.9929 68.6687C12.6874 69.2577 12.2208 69.7268 11.5932 70.076C10.9656 70.4252 10.3183 70.5759 9.65117 70.5281C8.98404 70.4803 8.35055 70.2554 7.75069 69.8534C7.15525 69.4592 6.65472 68.9048 6.24909 68.1904ZM7.87291 67.2869C8.06249 67.6208 8.30505 67.8844 8.60056 68.0776C8.90049 68.2786 9.21613 68.3891 9.54749 68.4091C9.88326 68.4369 10.2058 68.3596 10.5152 68.1773C10.8334 68.0104 11.0717 67.7757 11.2301 67.4729C11.393 67.1779 11.4617 66.8535 11.4364 66.4997C11.4233 66.1494 11.3219 65.8072 11.1323 65.4733C10.9383 65.1316 10.6891 64.8564 10.3848 64.6476C10.0849 64.4466 9.76925 64.3361 9.43789 64.3161C9.10652 64.2961 8.78003 64.3755 8.4584 64.5545C8.14462 64.7291 7.91023 64.9617 7.75523 65.2523C7.60023 65.5429 7.53149 65.8673 7.54901 66.2255C7.57095 66.5914 7.67891 66.9452 7.87291 67.2869Z" fill="white"/>
<path d="M11.971 75.7984L17.1001 70.8422L18.5332 72.2957L16.8315 74.0707L16.6568 73.53C17.054 73.308 17.4788 73.1776 17.9311 73.1389C18.3961 73.1004 18.8346 73.1435 19.2467 73.2681C19.6716 73.3929 20.0348 73.6083 20.3365 73.9143C20.5 74.08 20.6379 74.2518 20.7502 74.4295C20.8689 74.6136 20.9559 74.7847 21.0112 74.9429L18.906 76.1556C18.8825 75.9915 18.8084 75.8079 18.6836 75.6048C18.5651 75.4081 18.4242 75.2269 18.2608 75.0611C18.0785 74.8763 17.8797 74.7384 17.6645 74.6477C17.4619 74.557 17.2557 74.5136 17.0456 74.5174C16.842 74.515 16.6443 74.5504 16.4525 74.6237C16.267 74.7034 16.097 74.8179 15.9424 74.9672L13.4889 77.338L11.971 75.7984Z" fill="white"/>
<path d="M23.0153 84.7932C22.2681 84.3466 21.6946 83.8218 21.295 83.2188C20.9078 82.6128 20.7019 81.9851 20.6775 81.3357C20.6577 80.6787 20.8314 80.0489 21.1989 79.4464C21.4918 78.966 21.8455 78.5842 22.2599 78.3011C22.6743 78.0181 23.1254 77.8299 23.6133 77.7364C24.1013 77.643 24.6036 77.6467 25.1203 77.7474C25.637 77.848 26.1419 78.0457 26.6349 78.3404C27.1126 78.6258 27.5052 78.9645 27.8128 79.3564C28.125 79.7408 28.3438 80.1577 28.4691 80.6072C28.6021 81.0613 28.6356 81.5235 28.5695 81.9939C28.5034 82.4643 28.3254 82.9199 28.0356 83.3606L27.7101 83.8685L22.175 80.5605L22.558 79.3378L26.8567 81.9068L26.5207 82.0182L26.6602 81.7894C26.7534 81.5849 26.7733 81.3627 26.7199 81.1227C26.6743 80.8873 26.5653 80.6609 26.3931 80.4435C26.2255 80.2185 26.0069 80.0254 25.7372 79.8642C25.3906 79.6571 25.0475 79.5301 24.7081 79.4833C24.3734 79.429 24.0592 79.4701 23.7656 79.6069C23.4797 79.7482 23.2298 79.9942 23.0159 80.3451C22.8113 80.6806 22.7208 81.0272 22.7445 81.3848C22.776 81.7469 22.9131 82.0995 23.156 82.4423C23.4066 82.7898 23.7592 83.0994 24.2137 83.371C24.6066 83.6058 24.9619 83.7557 25.2796 83.8207C25.6097 83.8827 25.9268 83.9057 26.2309 83.8897L26.3374 85.5767C25.9669 85.6154 25.5857 85.6114 25.1938 85.5645C24.8143 85.5146 24.4404 85.4211 24.0719 85.2842C23.7065 85.1594 23.3543 84.9958 23.0153 84.7932Z" fill="white"/>
<path d="M42.0634 90.7367C41.3549 90.6787 40.7491 90.4726 40.2459 90.1186C39.7427 89.7645 39.3617 89.2998 39.1027 88.7244C38.8535 88.1409 38.7586 87.494 38.8179 86.7837C38.878 86.0646 39.0834 85.4423 39.4343 84.9168C39.7852 84.3913 40.2427 83.9952 40.8067 83.7285C41.3805 83.4537 42.0216 83.3453 42.7301 83.4033C43.1336 83.4363 43.5013 83.5201 43.8332 83.6545C44.1659 83.78 44.4503 83.9419 44.6866 84.14C44.9318 84.3388 45.1263 84.5514 45.2699 84.7777C45.4225 85.0047 45.516 85.2359 45.5506 85.4711L45.0798 85.4326L45.2199 83.7546L47.3453 83.9286L46.7547 91L44.5889 90.8227L44.7402 89.0116L45.192 89.1156C45.1189 89.342 44.9879 89.5592 44.799 89.7673C44.61 89.9753 44.3736 90.157 44.0898 90.3126C43.8059 90.4681 43.4891 90.5852 43.1394 90.6638C42.7987 90.7432 42.44 90.7675 42.0634 90.7367ZM42.792 88.9862C43.1955 89.0192 43.5516 88.9724 43.8601 88.8457C44.1777 88.7197 44.4286 88.5257 44.613 88.2637C44.8072 87.9936 44.9202 87.6676 44.952 87.2859C44.9832 86.913 44.9251 86.5819 44.7777 86.2928C44.64 85.9955 44.4253 85.7544 44.1338 85.5697C43.8512 85.3856 43.5081 85.2771 43.1045 85.244C42.701 85.211 42.3445 85.2623 42.0352 85.3979C41.7259 85.5334 41.4742 85.7363 41.2801 86.0065C41.0957 86.2685 40.9879 86.5859 40.9568 86.9588C40.9249 87.3406 40.9778 87.6801 41.1155 87.9774C41.2629 88.2666 41.4783 88.4987 41.7616 88.6739C42.0449 88.8491 42.3884 88.9531 42.792 88.9862Z" fill="white"/>
<path d="M57.0769 89.6513C56.6982 89.7297 56.3313 89.7557 55.9764 89.7291C55.6214 89.7025 55.2952 89.6381 54.9978 89.5358C54.7004 89.4336 54.4424 89.3005 54.2239 89.1364C54.0123 88.9618 53.8598 88.7841 53.7664 88.6032L54.3124 88.3809L54.5335 90.0143L52.5649 90.422L50.5221 80.7563L52.6492 80.3157L53.578 84.7104L53.0142 84.718C53.0298 84.4872 53.1001 84.2542 53.2251 84.019C53.35 83.7838 53.5236 83.5613 53.7459 83.3514C53.9751 83.131 54.2425 82.9391 54.5482 82.7757C54.8538 82.6123 55.1872 82.4931 55.5483 82.4183C56.2177 82.2797 56.8498 82.3126 57.4446 82.517C58.0376 82.7128 58.5463 83.0534 58.9707 83.5388C59.3932 84.0156 59.6782 84.6028 59.8256 85.3003C59.9749 86.0066 59.9534 86.6664 59.7612 87.2796C59.576 87.8822 59.2523 88.3952 58.7902 88.8186C58.3262 89.2332 57.7551 89.5108 57.0769 89.6513ZM56.1989 87.9765C56.5953 87.8944 56.9178 87.7457 57.1665 87.5303C57.424 87.3132 57.6034 87.053 57.7049 86.7499C57.8132 86.4362 57.8287 86.0962 57.7513 85.73C57.6739 85.3638 57.5265 85.0576 57.309 84.8114C57.0914 84.5652 56.8173 84.399 56.4865 84.3128C56.1645 84.2247 55.8097 84.2209 55.4222 84.3011C55.017 84.3851 54.6848 84.5312 54.4254 84.7397C54.1661 84.9481 53.9822 85.2092 53.8739 85.5229C53.7743 85.8347 53.7632 86.1738 53.8406 86.54C53.918 86.9062 54.0655 87.2124 54.283 87.4586C54.5075 87.6943 54.7816 87.8605 55.1054 87.9572C55.4293 88.054 55.7938 88.0604 56.1989 87.9765Z" fill="white"/>
<path d="M68.4935 85.173C67.7571 85.5666 67.0268 85.7746 66.3028 85.7971C65.5788 85.8196 64.9219 85.6745 64.3323 85.362C63.7426 85.0495 63.2767 84.5797 62.9348 83.9525C62.5928 83.3254 62.4516 82.6821 62.5112 82.0225C62.5709 81.363 62.8088 80.7398 63.2251 80.1529C63.6413 79.566 64.2177 79.0758 64.9541 78.6822C65.6826 78.2929 66.4049 78.0891 67.121 78.0709C67.845 78.0484 68.5019 78.1934 69.0916 78.5059C69.6813 78.8185 70.1471 79.2883 70.4891 79.9154C70.831 80.5425 70.9722 81.1859 70.9126 81.8454C70.8529 82.5049 70.615 83.1281 70.1987 83.715C69.7904 84.2977 69.222 84.7837 68.4935 85.173ZM67.6086 83.5503C67.9491 83.3684 68.2195 83.1328 68.4197 82.8436C68.6278 82.5501 68.7448 82.2396 68.7707 81.9119C68.8044 81.58 68.7319 81.2594 68.553 80.9501C68.3899 80.6323 68.1568 80.3924 67.8537 80.2304C67.5586 80.0642 67.2321 79.9906 66.8744 80.0097C66.5203 80.0167 66.173 80.1112 65.8325 80.2932C65.4841 80.4794 65.2019 80.7213 64.9858 81.019C64.7777 81.3124 64.6607 81.623 64.6349 81.9506C64.609 82.2783 64.6837 82.6028 64.859 82.9242C65.03 83.2378 65.2609 83.4737 65.5518 83.6321C65.8427 83.7905 66.1691 83.8641 66.5311 83.8528C66.901 83.8374 67.2602 83.7365 67.6086 83.5503Z" fill="white"/>
<path d="M78.3819 77.8615C77.974 78.2639 77.5314 78.5246 77.0539 78.6435C76.5829 78.7562 76.0994 78.7239 75.6033 78.5467C75.101 78.3632 74.6116 78.0348 74.1351 77.5616L71.2384 74.6844L72.768 73.1751L75.417 75.8062C75.6775 76.0649 75.9317 76.248 76.1797 76.3555C76.434 76.4567 76.6885 76.476 76.9431 76.4134C77.1914 76.3446 77.4303 76.1969 77.6597 75.9705C77.8254 75.807 77.953 75.6308 78.0424 75.442C78.1254 75.2469 78.1735 75.0485 78.1865 74.847C78.1932 74.6391 78.1617 74.4438 78.0921 74.261C78.0224 74.0656 77.905 73.8859 77.7398 73.7218L74.986 70.9866L76.5156 69.4773L81.5754 74.5029L80.1414 75.9179L79.0358 74.9523L79.1987 74.5652C79.351 74.8552 79.4236 75.1923 79.4166 75.5765C79.4096 75.9608 79.323 76.3543 79.1569 76.7572C78.9908 77.1475 78.7325 77.5156 78.3819 77.8615Z" fill="white"/>
<path d="M85.2261 69.1265L77.354 64.5323L78.4508 62.6905L86.3229 67.2847L85.2261 69.1265ZM79.8707 67.8315L78.2428 66.8814L81.0738 62.1272L82.7018 63.0773L79.8707 67.8315Z" fill="white"/>
<path d="M91.9776 48.5421C91.9028 49.403 91.662 50.147 91.2553 50.7741C90.8486 51.4011 90.3242 51.875 89.6822 52.1959C89.0409 52.5079 88.3302 52.6307 87.5502 52.5643L82.1036 52.1005L82.3026 49.8106L87.655 50.2663C88.0585 50.3007 88.4293 50.2428 88.7675 50.0928C89.1064 49.9339 89.3836 49.7071 89.5988 49.4125C89.8051 49.1171 89.9256 48.7697 89.9603 48.3703C89.9966 47.9532 89.9385 47.5816 89.7862 47.2557C89.6257 46.9202 89.3921 46.6455 89.0856 46.4316C88.7798 46.2089 88.4252 46.0803 88.0217 46.046L82.6693 45.5902L82.8613 43.3802L88.3078 43.8439C89.0879 43.9103 89.7665 44.1559 90.3438 44.5806C90.9218 44.9964 91.3571 45.5476 91.6497 46.2342C91.9423 46.9207 92.0516 47.69 91.9776 48.5421Z" fill="white"/>
<path d="M91.5757 38.4652L84.5759 39.9908L84.1348 38.0072L85.7549 37.5857L86.0102 38.05C85.6423 38.0116 85.2833 37.8892 84.9333 37.6827C84.5814 37.4675 84.274 37.1833 84.0112 36.8301C83.7377 36.4701 83.5496 36.0596 83.4471 35.5984C83.3155 35.0068 83.3229 34.4807 83.4692 34.0201C83.6156 33.5595 83.8852 33.1769 84.2782 32.8723C84.6624 32.5697 85.1533 32.3532 85.7509 32.223L89.9824 31.3007L90.4497 33.4018L86.5213 34.258C86.2138 34.325 85.9671 34.438 85.7813 34.5971C85.5936 34.7475 85.4668 34.9439 85.401 35.1863C85.3332 35.42 85.3302 35.676 85.3921 35.9544C85.4463 36.198 85.5396 36.4103 85.6719 36.5913C85.7936 36.7654 85.9402 36.9068 86.1118 37.0153C86.2746 37.1258 86.4482 37.202 86.6325 37.2439C86.815 37.2771 86.9941 37.2746 87.1699 37.2363L91.1114 36.3772L91.3407 37.4081C91.4045 37.6952 91.4558 37.9258 91.4945 38.0998C91.5332 38.2738 91.5603 38.3956 91.5757 38.4652Z" fill="white"/>
<path d="M87.66 26.0353L81.2075 29.1245L80.2613 27.1878L86.7138 24.0985L87.66 26.0353ZM79.4128 28.7963C79.5891 29.1572 79.6412 29.4786 79.569 29.7606C79.4887 30.0464 79.2866 30.2669 78.9625 30.422C78.6709 30.5616 78.3829 30.5758 78.0987 30.4645C77.8105 30.3452 77.5802 30.1091 77.4078 29.7562C77.2315 29.3953 77.1835 29.072 77.2638 28.7862C77.3359 28.5042 77.53 28.2876 77.8459 28.1363C78.1457 27.9928 78.4397 27.9807 78.7278 28.1001C79.0121 28.2113 79.2404 28.4434 79.4128 28.7963Z" fill="white"/>
<path d="M83.5685 19.0227L77.8918 23.3546L76.6392 21.7459L78.5379 20.1789L78.648 20.7361C78.2273 20.9109 77.7901 20.9914 77.3364 20.9777C76.87 20.9625 76.4395 20.8692 76.0448 20.6979C75.6375 20.5251 75.302 20.2693 75.0383 19.9307C74.8955 19.7472 74.7787 19.5608 74.688 19.3713C74.5918 19.1748 74.5255 18.9948 74.4891 18.8313L76.7225 17.8693C76.7265 18.035 76.7786 18.2259 76.8787 18.4419C76.9732 18.6509 77.092 18.8472 77.2348 19.0306C77.3941 19.2352 77.5753 19.395 77.7785 19.51C77.969 19.6233 78.1687 19.6902 78.3778 19.7106C78.5797 19.7365 78.7803 19.7241 78.9794 19.6733C79.173 19.6156 79.3553 19.5214 79.5264 19.3909L82.2418 17.3188L83.5685 19.0227Z" fill="white"/>
<path d="M73.6564 8.81757C74.3461 9.34718 74.854 9.93446 75.18 10.5794C75.4934 11.2259 75.6241 11.8731 75.5721 12.5209C75.5146 13.1757 75.268 13.7811 74.8323 14.3372C74.4848 14.7807 74.0887 15.1191 73.6439 15.3526C73.199 15.586 72.7288 15.721 72.2332 15.7576C71.7376 15.7942 71.2392 15.7327 70.7378 15.5732C70.2364 15.4137 69.7582 15.1592 69.3031 14.8098C68.8623 14.4713 68.5121 14.0896 68.2527 13.6649C67.9877 13.2473 67.8194 12.808 67.7478 12.3471C67.669 11.8808 67.6901 11.4178 67.811 10.9582C67.932 10.4987 68.1622 10.0667 68.5019 9.6623L68.8848 9.19535L73.9936 13.1183L73.4696 14.2886L69.502 11.242L69.8487 11.17L69.6833 11.3812C69.5667 11.5736 69.5208 11.792 69.5456 12.0365C69.5633 12.2756 69.6449 12.513 69.7905 12.7488C69.9305 12.9916 70.1249 13.2085 70.3738 13.3996C70.6938 13.6453 71.0195 13.8109 71.3511 13.8965C71.6772 13.989 71.9941 13.9843 72.3018 13.8823C72.6023 13.7749 72.8794 13.5593 73.1331 13.2355C73.3758 12.9257 73.5064 12.5919 73.5248 12.2341C73.5362 11.8707 73.4414 11.5048 73.2404 11.1363C73.0324 10.7623 72.7186 10.4143 72.299 10.0921C71.9364 9.81367 71.6011 9.62385 71.2932 9.52269C70.9726 9.4231 70.6604 9.36374 70.3565 9.3446L70.449 7.65682C70.8215 7.66102 71.1996 7.70897 71.5833 7.80066C71.9544 7.89393 72.3148 8.0298 72.6647 8.20826C73.013 8.37423 73.3436 8.57733 73.6564 8.81757Z" fill="white"/>
<path d="M65.8162 4.19313L63.172 10.7882L61.265 10.0389L61.8197 8.47414L62.3513 8.52485C62.1131 8.80505 61.8095 9.03083 61.4407 9.20219C61.0635 9.37027 60.6535 9.46316 60.2108 9.48087C59.7563 9.50357 59.3074 9.42783 58.8641 9.25365C58.2954 9.03017 57.8593 8.72942 57.5558 8.35139C57.2523 7.97337 57.0832 7.53792 57.0485 7.04504C57.0104 6.56044 57.1043 6.03662 57.33 5.47358L58.9285 1.48673L60.9483 2.28041L59.4644 5.9816C59.3482 6.2714 59.3047 6.53702 59.3337 6.77847C59.3544 7.01663 59.4477 7.23061 59.6137 7.42041C59.7712 7.60692 59.9839 7.75277 60.2515 7.85793C60.4857 7.94995 60.7156 7.99236 60.9411 7.98515C61.155 7.98293 61.3554 7.94187 61.5424 7.86197C61.726 7.79036 61.887 7.69068 62.0253 7.56293C62.1553 7.4319 62.2535 7.28359 62.3199 7.11799L63.8088 3.40438L64.7999 3.79383C65.0759 3.90228 65.2976 3.98937 65.4649 4.0551C65.6321 4.12083 65.7492 4.16684 65.8162 4.19313Z" fill="white"/>
<path d="M52.569 0.339841L51.4436 9.31749L49.3004 9.05418L50.4258 0.0765343L52.569 0.339841ZM53.4997 5.71905L53.2669 7.57558L47.7347 6.89592L47.9674 5.03939L53.4997 5.71905Z" fill="white"/>
</svg>
