<svg width="43" height="20" viewBox="0 0 43 20" fill="none" xmlns="http://www.w3.org/2000/svg">
<path d="M43 10.0023C34.4297 9.20884 33.7983 8.56609 32.9891 7.55455e-07C32.201 8.56454 31.5725 9.20814 23 10.0023C31.5725 10.7891 32.2017 11.434 32.9891 20C33.7982 11.4339 34.4296 10.789 43 10.0023Z" fill="#8439EB"/>
<path d="M19 10.0011C14.7149 9.60442 14.3991 9.28304 13.9946 5C13.6005 9.28227 13.2863 9.60407 9 10.0011C13.2863 10.3945 13.6009 10.717 13.9946 15C14.3991 10.717 14.7148 10.3945 19 10.0011Z" fill="#8439EB"/>
<path d="M5 9.50057C2.85744 9.30221 2.69957 9.14152 2.49728 7C2.30024 9.14113 2.14313 9.30203 -1.09254e-07 9.50057C2.14314 9.69727 2.30043 9.8585 2.49728 12C2.69954 9.85849 2.85739 9.69726 5 9.50057Z" fill="#8439EB"/>
</svg>
