<svg width="191" height="143" viewBox="0 0 191 143" fill="none" xmlns="http://www.w3.org/2000/svg">
<path d="M13.327 142.852C10.8346 142.852 8.73805 142.427 7.03735 141.577C5.33666 140.697 3.97317 139.524 2.94689 138.058C1.92061 136.563 1.17289 134.877 0.703736 133C0.234578 131.124 0 129.188 0 127.194V111.404H3.95851V127.194C3.95851 128.719 4.10512 130.215 4.39835 131.681C4.72089 133.117 5.23403 134.408 5.93777 135.551C6.6415 136.695 7.59448 137.604 8.79669 138.278C9.99891 138.953 11.4943 139.29 13.283 139.29C15.101 139.29 16.6111 138.953 17.8133 138.278C19.0155 137.574 19.9685 136.651 20.6722 135.507C21.376 134.334 21.8744 133.03 22.1677 131.593C22.4902 130.156 22.6515 128.69 22.6515 127.194V111.404H26.61V127.194C26.61 129.306 26.3608 131.314 25.8623 133.22C25.3931 135.097 24.6307 136.753 23.5751 138.19C22.5195 139.627 21.1414 140.771 19.4407 141.621C17.7693 142.442 15.7314 142.852 13.327 142.852Z" fill="white"/>
<path d="M37.6007 118.706V142.633H33.6422V111.404H36.9849L56.0738 135.815V111.448H60.0323V142.633H56.4256L37.6007 118.706Z" fill="white"/>
<path d="M67.4888 142.633V111.404H71.4474V142.633H67.4888Z" fill="white"/>
<path d="M78.9142 142.633V111.404H92.2852C93.6634 111.404 94.9242 111.698 96.0678 112.284C97.2114 112.841 98.2083 113.603 99.0587 114.571C99.909 115.509 100.569 116.58 101.038 117.782C101.507 118.955 101.742 120.157 101.742 121.389C101.742 122.825 101.463 124.189 100.906 125.479C100.378 126.769 99.6158 127.869 98.6188 128.778C97.6512 129.687 96.5076 130.317 95.1881 130.669L102.753 142.633H98.267L91.1416 131.417H82.8728V142.633H78.9142ZM82.8728 127.898H92.3292C93.4141 127.898 94.3524 127.605 95.1441 127.018C95.9652 126.403 96.5956 125.596 97.0354 124.599C97.5046 123.602 97.7392 122.532 97.7392 121.389C97.7392 120.216 97.4753 119.145 96.9475 118.178C96.4197 117.181 95.7306 116.389 94.8802 115.803C94.0299 115.216 93.0916 114.923 92.0653 114.923H82.8728V127.898Z" fill="white"/>
<path d="M129.021 139.114V142.633H107.821V111.404H128.626V114.923H111.78V125.039H126.426V128.338H111.78V139.114H129.021Z" fill="white"/>
<path d="M138.41 118.706V142.633H134.452V111.404H137.795L156.884 135.815V111.448H160.842V142.633H157.235L138.41 118.706Z" fill="white"/>
<path d="M190.818 114.923H180.042V142.633H176.084V114.923H165.308V111.404H190.818V114.923Z" fill="white"/>
<g filter="url(#filter0_i_26_304)">
<path d="M111.203 31.73L139.76 0L121.912 38.2743L111.203 44.0253V31.73Z" fill="url(#paint0_linear_26_304)"/>
</g>
<g filter="url(#filter1_i_26_304)">
<path d="M101.684 29.5488L111.203 31.7303V44.0256L101.684 29.5488Z" fill="url(#paint1_linear_26_304)"/>
</g>
<g filter="url(#filter2_i_26_304)">
<path d="M86.4141 36.2915L94.5449 18.4434L111.203 44.0256L86.4141 36.2915Z" fill="url(#paint2_linear_26_304)"/>
</g>
<g filter="url(#filter3_i_26_304)">
<path d="M94.7432 51.3627L86.4141 36.291L111.203 44.0252L94.7432 51.3627Z" fill="url(#paint3_linear_26_304)"/>
</g>
<g filter="url(#filter4_i_26_304)">
<path d="M94.7416 51.3627L86.4125 36.291L60.4336 93.6033L94.7416 51.3627Z" fill="url(#paint4_linear_26_304)"/>
</g>
<g filter="url(#filter5_i_26_304)">
<path d="M60.4346 93.6033L86.4135 36.291L41 93.8016L60.4346 93.6033Z" fill="url(#paint5_linear_26_304)"/>
</g>
<g filter="url(#filter6_i_26_304)">
<path d="M94.7416 51.3633L60.4336 93.6038L87.2057 78.7304L94.7416 51.3633Z" fill="url(#paint6_linear_26_304)"/>
</g>
<g filter="url(#filter7_i_26_304)">
<path d="M109.02 93.9995L87.2057 78.7295L60.4336 93.6029L109.02 93.9995Z" fill="url(#paint7_linear_26_304)"/>
</g>
<g filter="url(#filter8_i_26_304)">
<path d="M87.207 78.7304L94.7429 51.3633L109.021 94.0004L87.207 78.7304Z" fill="url(#paint8_linear_26_304)"/>
</g>
<g filter="url(#filter9_i_26_304)">
<path d="M108.822 66.8316L94.7422 51.3633L109.021 94.0004L108.822 66.8316Z" fill="url(#paint9_linear_26_304)"/>
</g>
<g filter="url(#filter10_i_26_304)">
<path d="M123.299 57.3126L114.573 72.9793L108.822 66.8316L94.7422 51.3633L123.299 57.3126Z" fill="url(#paint10_linear_26_304)"/>
</g>
<g filter="url(#filter11_i_26_304)">
<path d="M123.299 57.3124L94.7422 51.363L111.4 43.8272L121.911 38.2744L123.299 57.3124Z" fill="url(#paint11_linear_26_304)"/>
</g>
<g filter="url(#filter12_i_26_304)">
<path d="M129.644 49.1816L121.91 38.2744L123.298 57.3124L129.644 49.1816Z" fill="url(#paint12_linear_26_304)"/>
</g>
<g filter="url(#filter13_i_26_304)">
<path d="M127.861 71.591L114.574 72.9792L123.3 57.3125L127.861 71.591Z" fill="url(#paint13_linear_26_304)"/>
</g>
<g filter="url(#filter14_i_26_304)">
<path d="M148.883 63.2618L129.647 49.1816L123.301 57.3124L148.883 63.2618Z" fill="url(#paint14_linear_26_304)"/>
</g>
<g filter="url(#filter15_i_26_304)">
<path d="M127.862 71.591L123.301 57.3125L148.883 63.2619L127.862 71.591Z" fill="url(#paint15_linear_26_304)"/>
</g>
<g filter="url(#filter16_i_26_304)">
<path d="M127.859 71.5908L148.88 63.2617L146.699 74.1689L127.859 71.5908Z" fill="url(#paint16_linear_26_304)"/>
</g>
<g filter="url(#filter17_i_26_304)">
<path d="M141.543 77.5402L127.859 71.5908L146.699 74.1689L141.543 77.5402Z" fill="url(#paint17_linear_26_304)"/>
</g>
<defs>
<filter id="filter0_i_26_304" x="111.203" y="0" width="28.5586" height="48.0254" filterUnits="userSpaceOnUse" color-interpolation-filters="sRGB">
<feFlood flood-opacity="0" result="BackgroundImageFix"/>
<feBlend mode="normal" in="SourceGraphic" in2="BackgroundImageFix" result="shape"/>
<feColorMatrix in="SourceAlpha" type="matrix" values="0 0 0 0 0 0 0 0 0 0 0 0 0 0 0 0 0 0 127 0" result="hardAlpha"/>
<feOffset dy="4"/>
<feGaussianBlur stdDeviation="5"/>
<feComposite in2="hardAlpha" operator="arithmetic" k2="-1" k3="1"/>
<feColorMatrix type="matrix" values="0 0 0 0 0 0 0 0 0 0 0 0 0 0 0 0 0 0 0.16 0"/>
<feBlend mode="normal" in2="shape" result="effect1_innerShadow_26_304"/>
</filter>
<filter id="filter1_i_26_304" x="101.684" y="29.5488" width="9.51953" height="18.4766" filterUnits="userSpaceOnUse" color-interpolation-filters="sRGB">
<feFlood flood-opacity="0" result="BackgroundImageFix"/>
<feBlend mode="normal" in="SourceGraphic" in2="BackgroundImageFix" result="shape"/>
<feColorMatrix in="SourceAlpha" type="matrix" values="0 0 0 0 0 0 0 0 0 0 0 0 0 0 0 0 0 0 127 0" result="hardAlpha"/>
<feOffset dy="4"/>
<feGaussianBlur stdDeviation="5"/>
<feComposite in2="hardAlpha" operator="arithmetic" k2="-1" k3="1"/>
<feColorMatrix type="matrix" values="0 0 0 0 0 0 0 0 0 0 0 0 0 0 0 0 0 0 0.16 0"/>
<feBlend mode="normal" in2="shape" result="effect1_innerShadow_26_304"/>
</filter>
<filter id="filter2_i_26_304" x="86.4141" y="18.4434" width="24.7891" height="29.582" filterUnits="userSpaceOnUse" color-interpolation-filters="sRGB">
<feFlood flood-opacity="0" result="BackgroundImageFix"/>
<feBlend mode="normal" in="SourceGraphic" in2="BackgroundImageFix" result="shape"/>
<feColorMatrix in="SourceAlpha" type="matrix" values="0 0 0 0 0 0 0 0 0 0 0 0 0 0 0 0 0 0 127 0" result="hardAlpha"/>
<feOffset dy="4"/>
<feGaussianBlur stdDeviation="5"/>
<feComposite in2="hardAlpha" operator="arithmetic" k2="-1" k3="1"/>
<feColorMatrix type="matrix" values="0 0 0 0 0 0 0 0 0 0 0 0 0 0 0 0 0 0 0.16 0"/>
<feBlend mode="normal" in2="shape" result="effect1_innerShadow_26_304"/>
</filter>
<filter id="filter3_i_26_304" x="86.4141" y="36.291" width="24.7891" height="19.0713" filterUnits="userSpaceOnUse" color-interpolation-filters="sRGB">
<feFlood flood-opacity="0" result="BackgroundImageFix"/>
<feBlend mode="normal" in="SourceGraphic" in2="BackgroundImageFix" result="shape"/>
<feColorMatrix in="SourceAlpha" type="matrix" values="0 0 0 0 0 0 0 0 0 0 0 0 0 0 0 0 0 0 127 0" result="hardAlpha"/>
<feOffset dy="4"/>
<feGaussianBlur stdDeviation="5"/>
<feComposite in2="hardAlpha" operator="arithmetic" k2="-1" k3="1"/>
<feColorMatrix type="matrix" values="0 0 0 0 0 0 0 0 0 0 0 0 0 0 0 0 0 0 0.16 0"/>
<feBlend mode="normal" in2="shape" result="effect1_innerShadow_26_304"/>
</filter>
<filter id="filter4_i_26_304" x="60.4336" y="36.291" width="34.3086" height="61.3125" filterUnits="userSpaceOnUse" color-interpolation-filters="sRGB">
<feFlood flood-opacity="0" result="BackgroundImageFix"/>
<feBlend mode="normal" in="SourceGraphic" in2="BackgroundImageFix" result="shape"/>
<feColorMatrix in="SourceAlpha" type="matrix" values="0 0 0 0 0 0 0 0 0 0 0 0 0 0 0 0 0 0 127 0" result="hardAlpha"/>
<feOffset dy="4"/>
<feGaussianBlur stdDeviation="5"/>
<feComposite in2="hardAlpha" operator="arithmetic" k2="-1" k3="1"/>
<feColorMatrix type="matrix" values="0 0 0 0 0 0 0 0 0 0 0 0 0 0 0 0 0 0 0.16 0"/>
<feBlend mode="normal" in2="shape" result="effect1_innerShadow_26_304"/>
</filter>
<filter id="filter5_i_26_304" x="41" y="36.291" width="45.4141" height="61.5107" filterUnits="userSpaceOnUse" color-interpolation-filters="sRGB">
<feFlood flood-opacity="0" result="BackgroundImageFix"/>
<feBlend mode="normal" in="SourceGraphic" in2="BackgroundImageFix" result="shape"/>
<feColorMatrix in="SourceAlpha" type="matrix" values="0 0 0 0 0 0 0 0 0 0 0 0 0 0 0 0 0 0 127 0" result="hardAlpha"/>
<feOffset dy="4"/>
<feGaussianBlur stdDeviation="5"/>
<feComposite in2="hardAlpha" operator="arithmetic" k2="-1" k3="1"/>
<feColorMatrix type="matrix" values="0 0 0 0 0 0 0 0 0 0 0 0 0 0 0 0 0 0 0.16 0"/>
<feBlend mode="normal" in2="shape" result="effect1_innerShadow_26_304"/>
</filter>
<filter id="filter6_i_26_304" x="60.4336" y="51.3633" width="34.3086" height="46.2402" filterUnits="userSpaceOnUse" color-interpolation-filters="sRGB">
<feFlood flood-opacity="0" result="BackgroundImageFix"/>
<feBlend mode="normal" in="SourceGraphic" in2="BackgroundImageFix" result="shape"/>
<feColorMatrix in="SourceAlpha" type="matrix" values="0 0 0 0 0 0 0 0 0 0 0 0 0 0 0 0 0 0 127 0" result="hardAlpha"/>
<feOffset dy="4"/>
<feGaussianBlur stdDeviation="5"/>
<feComposite in2="hardAlpha" operator="arithmetic" k2="-1" k3="1"/>
<feColorMatrix type="matrix" values="0 0 0 0 0 0 0 0 0 0 0 0 0 0 0 0 0 0 0.16 0"/>
<feBlend mode="normal" in2="shape" result="effect1_innerShadow_26_304"/>
</filter>
<filter id="filter7_i_26_304" x="60.4336" y="78.7295" width="48.5859" height="19.2705" filterUnits="userSpaceOnUse" color-interpolation-filters="sRGB">
<feFlood flood-opacity="0" result="BackgroundImageFix"/>
<feBlend mode="normal" in="SourceGraphic" in2="BackgroundImageFix" result="shape"/>
<feColorMatrix in="SourceAlpha" type="matrix" values="0 0 0 0 0 0 0 0 0 0 0 0 0 0 0 0 0 0 127 0" result="hardAlpha"/>
<feOffset dy="4"/>
<feGaussianBlur stdDeviation="5"/>
<feComposite in2="hardAlpha" operator="arithmetic" k2="-1" k3="1"/>
<feColorMatrix type="matrix" values="0 0 0 0 0 0 0 0 0 0 0 0 0 0 0 0 0 0 0.16 0"/>
<feBlend mode="normal" in2="shape" result="effect1_innerShadow_26_304"/>
</filter>
<filter id="filter8_i_26_304" x="87.207" y="51.3633" width="21.8125" height="46.6367" filterUnits="userSpaceOnUse" color-interpolation-filters="sRGB">
<feFlood flood-opacity="0" result="BackgroundImageFix"/>
<feBlend mode="normal" in="SourceGraphic" in2="BackgroundImageFix" result="shape"/>
<feColorMatrix in="SourceAlpha" type="matrix" values="0 0 0 0 0 0 0 0 0 0 0 0 0 0 0 0 0 0 127 0" result="hardAlpha"/>
<feOffset dy="4"/>
<feGaussianBlur stdDeviation="5"/>
<feComposite in2="hardAlpha" operator="arithmetic" k2="-1" k3="1"/>
<feColorMatrix type="matrix" values="0 0 0 0 0 0 0 0 0 0 0 0 0 0 0 0 0 0 0.16 0"/>
<feBlend mode="normal" in2="shape" result="effect1_innerShadow_26_304"/>
</filter>
<filter id="filter9_i_26_304" x="94.7422" y="51.3633" width="14.2773" height="46.6367" filterUnits="userSpaceOnUse" color-interpolation-filters="sRGB">
<feFlood flood-opacity="0" result="BackgroundImageFix"/>
<feBlend mode="normal" in="SourceGraphic" in2="BackgroundImageFix" result="shape"/>
<feColorMatrix in="SourceAlpha" type="matrix" values="0 0 0 0 0 0 0 0 0 0 0 0 0 0 0 0 0 0 127 0" result="hardAlpha"/>
<feOffset dy="4"/>
<feGaussianBlur stdDeviation="5"/>
<feComposite in2="hardAlpha" operator="arithmetic" k2="-1" k3="1"/>
<feColorMatrix type="matrix" values="0 0 0 0 0 0 0 0 0 0 0 0 0 0 0 0 0 0 0.16 0"/>
<feBlend mode="normal" in2="shape" result="effect1_innerShadow_26_304"/>
</filter>
<filter id="filter10_i_26_304" x="94.7422" y="51.3633" width="28.5586" height="25.6162" filterUnits="userSpaceOnUse" color-interpolation-filters="sRGB">
<feFlood flood-opacity="0" result="BackgroundImageFix"/>
<feBlend mode="normal" in="SourceGraphic" in2="BackgroundImageFix" result="shape"/>
<feColorMatrix in="SourceAlpha" type="matrix" values="0 0 0 0 0 0 0 0 0 0 0 0 0 0 0 0 0 0 127 0" result="hardAlpha"/>
<feOffset dy="4"/>
<feGaussianBlur stdDeviation="5"/>
<feComposite in2="hardAlpha" operator="arithmetic" k2="-1" k3="1"/>
<feColorMatrix type="matrix" values="0 0 0 0 0 0 0 0 0 0 0 0 0 0 0 0 0 0 0.16 0"/>
<feBlend mode="normal" in2="shape" result="effect1_innerShadow_26_304"/>
</filter>
<filter id="filter11_i_26_304" x="94.7422" y="38.2744" width="28.5586" height="23.0381" filterUnits="userSpaceOnUse" color-interpolation-filters="sRGB">
<feFlood flood-opacity="0" result="BackgroundImageFix"/>
<feBlend mode="normal" in="SourceGraphic" in2="BackgroundImageFix" result="shape"/>
<feColorMatrix in="SourceAlpha" type="matrix" values="0 0 0 0 0 0 0 0 0 0 0 0 0 0 0 0 0 0 127 0" result="hardAlpha"/>
<feOffset dy="4"/>
<feGaussianBlur stdDeviation="5"/>
<feComposite in2="hardAlpha" operator="arithmetic" k2="-1" k3="1"/>
<feColorMatrix type="matrix" values="0 0 0 0 0 0 0 0 0 0 0 0 0 0 0 0 0 0 0.16 0"/>
<feBlend mode="normal" in2="shape" result="effect1_innerShadow_26_304"/>
</filter>
<filter id="filter12_i_26_304" x="121.91" y="38.2744" width="7.73438" height="23.0381" filterUnits="userSpaceOnUse" color-interpolation-filters="sRGB">
<feFlood flood-opacity="0" result="BackgroundImageFix"/>
<feBlend mode="normal" in="SourceGraphic" in2="BackgroundImageFix" result="shape"/>
<feColorMatrix in="SourceAlpha" type="matrix" values="0 0 0 0 0 0 0 0 0 0 0 0 0 0 0 0 0 0 127 0" result="hardAlpha"/>
<feOffset dy="4"/>
<feGaussianBlur stdDeviation="5"/>
<feComposite in2="hardAlpha" operator="arithmetic" k2="-1" k3="1"/>
<feColorMatrix type="matrix" values="0 0 0 0 0 0 0 0 0 0 0 0 0 0 0 0 0 0 0.16 0"/>
<feBlend mode="normal" in2="shape" result="effect1_innerShadow_26_304"/>
</filter>
<filter id="filter13_i_26_304" x="114.574" y="57.3125" width="13.2852" height="19.667" filterUnits="userSpaceOnUse" color-interpolation-filters="sRGB">
<feFlood flood-opacity="0" result="BackgroundImageFix"/>
<feBlend mode="normal" in="SourceGraphic" in2="BackgroundImageFix" result="shape"/>
<feColorMatrix in="SourceAlpha" type="matrix" values="0 0 0 0 0 0 0 0 0 0 0 0 0 0 0 0 0 0 127 0" result="hardAlpha"/>
<feOffset dy="4"/>
<feGaussianBlur stdDeviation="5"/>
<feComposite in2="hardAlpha" operator="arithmetic" k2="-1" k3="1"/>
<feColorMatrix type="matrix" values="0 0 0 0 0 0 0 0 0 0 0 0 0 0 0 0 0 0 0.16 0"/>
<feBlend mode="normal" in2="shape" result="effect1_innerShadow_26_304"/>
</filter>
<filter id="filter14_i_26_304" x="123.301" y="49.1816" width="25.582" height="18.0801" filterUnits="userSpaceOnUse" color-interpolation-filters="sRGB">
<feFlood flood-opacity="0" result="BackgroundImageFix"/>
<feBlend mode="normal" in="SourceGraphic" in2="BackgroundImageFix" result="shape"/>
<feColorMatrix in="SourceAlpha" type="matrix" values="0 0 0 0 0 0 0 0 0 0 0 0 0 0 0 0 0 0 127 0" result="hardAlpha"/>
<feOffset dy="4"/>
<feGaussianBlur stdDeviation="5"/>
<feComposite in2="hardAlpha" operator="arithmetic" k2="-1" k3="1"/>
<feColorMatrix type="matrix" values="0 0 0 0 0 0 0 0 0 0 0 0 0 0 0 0 0 0 0.16 0"/>
<feBlend mode="normal" in2="shape" result="effect1_innerShadow_26_304"/>
</filter>
<filter id="filter15_i_26_304" x="123.301" y="57.3125" width="25.582" height="18.2783" filterUnits="userSpaceOnUse" color-interpolation-filters="sRGB">
<feFlood flood-opacity="0" result="BackgroundImageFix"/>
<feBlend mode="normal" in="SourceGraphic" in2="BackgroundImageFix" result="shape"/>
<feColorMatrix in="SourceAlpha" type="matrix" values="0 0 0 0 0 0 0 0 0 0 0 0 0 0 0 0 0 0 127 0" result="hardAlpha"/>
<feOffset dy="4"/>
<feGaussianBlur stdDeviation="5"/>
<feComposite in2="hardAlpha" operator="arithmetic" k2="-1" k3="1"/>
<feColorMatrix type="matrix" values="0 0 0 0 0 0 0 0 0 0 0 0 0 0 0 0 0 0 0.16 0"/>
<feBlend mode="normal" in2="shape" result="effect1_innerShadow_26_304"/>
</filter>
<filter id="filter16_i_26_304" x="127.859" y="63.2617" width="21.0195" height="14.9072" filterUnits="userSpaceOnUse" color-interpolation-filters="sRGB">
<feFlood flood-opacity="0" result="BackgroundImageFix"/>
<feBlend mode="normal" in="SourceGraphic" in2="BackgroundImageFix" result="shape"/>
<feColorMatrix in="SourceAlpha" type="matrix" values="0 0 0 0 0 0 0 0 0 0 0 0 0 0 0 0 0 0 127 0" result="hardAlpha"/>
<feOffset dy="4"/>
<feGaussianBlur stdDeviation="5"/>
<feComposite in2="hardAlpha" operator="arithmetic" k2="-1" k3="1"/>
<feColorMatrix type="matrix" values="0 0 0 0 0 0 0 0 0 0 0 0 0 0 0 0 0 0 0.16 0"/>
<feBlend mode="normal" in2="shape" result="effect1_innerShadow_26_304"/>
</filter>
<filter id="filter17_i_26_304" x="127.859" y="71.5908" width="18.8398" height="9.94922" filterUnits="userSpaceOnUse" color-interpolation-filters="sRGB">
<feFlood flood-opacity="0" result="BackgroundImageFix"/>
<feBlend mode="normal" in="SourceGraphic" in2="BackgroundImageFix" result="shape"/>
<feColorMatrix in="SourceAlpha" type="matrix" values="0 0 0 0 0 0 0 0 0 0 0 0 0 0 0 0 0 0 127 0" result="hardAlpha"/>
<feOffset dy="4"/>
<feGaussianBlur stdDeviation="5"/>
<feComposite in2="hardAlpha" operator="arithmetic" k2="-1" k3="1"/>
<feColorMatrix type="matrix" values="0 0 0 0 0 0 0 0 0 0 0 0 0 0 0 0 0 0 0.16 0"/>
<feBlend mode="normal" in2="shape" result="effect1_innerShadow_26_304"/>
</filter>
<linearGradient id="paint0_linear_26_304" x1="147.221" y1="-1.56666" x2="111.814" y2="44.4933" gradientUnits="userSpaceOnUse">
<stop stop-color="#7B39FE"/>
<stop offset="1" stop-color="#CB42AD"/>
</linearGradient>
<linearGradient id="paint1_linear_26_304" x1="112.127" y1="30.707" x2="103.667" y2="40.107" gradientUnits="userSpaceOnUse">
<stop stop-color="#7B39FE"/>
<stop offset="1" stop-color="#CB42AD"/>
</linearGradient>
<linearGradient id="paint2_linear_26_304" x1="88.0006" y1="24.127" x2="114.32" y2="46.687" gradientUnits="userSpaceOnUse">
<stop stop-color="#7B39FE"/>
<stop offset="1" stop-color="#CB42AD"/>
</linearGradient>
<linearGradient id="paint3_linear_26_304" x1="98.8086" y1="36.291" x2="98.8086" y2="50.7976" gradientUnits="userSpaceOnUse">
<stop stop-color="#7B39FE"/>
<stop offset="1" stop-color="#CB42AD"/>
</linearGradient>
<linearGradient id="paint4_linear_26_304" x1="91.4456" y1="39.1666" x2="50.7123" y2="110.607" gradientUnits="userSpaceOnUse">
<stop offset="0.224364" stop-color="#CB42AD"/>
<stop offset="1" stop-color="#7B39FE"/>
</linearGradient>
<linearGradient id="paint5_linear_26_304" x1="87.3733" y1="29.4532" x2="43.5067" y2="102.773" gradientUnits="userSpaceOnUse">
<stop stop-color="#CB42AD"/>
<stop offset="1" stop-color="#B318C4"/>
</linearGradient>
<linearGradient id="paint6_linear_26_304" x1="97.0856" y1="46.0605" x2="71.7056" y2="89.3005" gradientUnits="userSpaceOnUse">
<stop stop-color="#7B39FE"/>
<stop offset="1" stop-color="#CB42AD"/>
</linearGradient>
<linearGradient id="paint7_linear_26_304" x1="84.7268" y1="78.7295" x2="84.7268" y2="93.4269" gradientUnits="userSpaceOnUse">
<stop stop-color="#7B39FE"/>
<stop offset="1" stop-color="#CB42AD"/>
</linearGradient>
<linearGradient id="paint8_linear_26_304" x1="115.26" y1="76.1405" x2="80.4803" y2="75.8271" gradientUnits="userSpaceOnUse">
<stop stop-color="#7B39FE"/>
<stop offset="1" stop-color="#CB42AD"/>
</linearGradient>
<linearGradient id="paint9_linear_26_304" x1="121.213" y1="65.1738" x2="90.1929" y2="72.6938" gradientUnits="userSpaceOnUse">
<stop stop-color="#7B39FE"/>
<stop offset="1" stop-color="#CB42AD"/>
</linearGradient>
<linearGradient id="paint10_linear_26_304" x1="93.3262" y1="57.9671" x2="122.78" y2="65.8005" gradientUnits="userSpaceOnUse">
<stop stop-color="#7B39FE"/>
<stop offset="1" stop-color="#CB42AD"/>
</linearGradient>
<linearGradient id="paint11_linear_26_304" x1="129.673" y1="37.2868" x2="103.353" y2="54.8335" gradientUnits="userSpaceOnUse">
<stop stop-color="#7B39FE"/>
<stop offset="1" stop-color="#CB42AD"/>
</linearGradient>
<linearGradient id="paint12_linear_26_304" x1="113.379" y1="29.1402" x2="130.299" y2="57.0268" gradientUnits="userSpaceOnUse">
<stop stop-color="#7B39FE"/>
<stop offset="1" stop-color="#CB42AD"/>
</linearGradient>
<linearGradient id="paint13_linear_26_304" x1="121.218" y1="57.3125" x2="121.218" y2="72.3917" gradientUnits="userSpaceOnUse">
<stop stop-color="#7B39FE"/>
<stop offset="1" stop-color="#CB42AD"/>
</linearGradient>
<linearGradient id="paint14_linear_26_304" x1="136.092" y1="49.1816" x2="136.092" y2="62.7338" gradientUnits="userSpaceOnUse">
<stop stop-color="#7B39FE"/>
<stop offset="1" stop-color="#CB42AD"/>
</linearGradient>
<linearGradient id="paint15_linear_26_304" x1="136.092" y1="57.3125" x2="136.092" y2="71.0555" gradientUnits="userSpaceOnUse">
<stop stop-color="#7B39FE"/>
<stop offset="1" stop-color="#CB42AD"/>
</linearGradient>
<linearGradient id="paint16_linear_26_304" x1="138.37" y1="63.2617" x2="138.37" y2="73.7599" gradientUnits="userSpaceOnUse">
<stop stop-color="#7B39FE"/>
<stop offset="1" stop-color="#CB42AD"/>
</linearGradient>
<linearGradient id="paint17_linear_26_304" x1="137.279" y1="71.5908" x2="137.279" y2="77.3171" gradientUnits="userSpaceOnUse">
<stop stop-color="#7B39FE"/>
<stop offset="1" stop-color="#CB42AD"/>
</linearGradient>
</defs>
</svg>
