<svg width="302" height="326" viewBox="0 0 302 326" fill="none" xmlns="http://www.w3.org/2000/svg">
<g filter="url(#filter0_b_83_7162)">
<path d="M1 1H151H301L276.073 135.189C272.72 153.243 272.709 171.759 276.043 189.816L301 325L151 324L1 325L25.957 189.816C29.2907 171.759 29.2804 153.243 25.9268 135.189L1 1Z" fill="#080808"/>
<path d="M1 1H151H301L276.073 135.189C272.72 153.243 272.709 171.759 276.043 189.816L301 325L151 324L1 325L25.957 189.816C29.2907 171.759 29.2804 153.243 25.9268 135.189L1 1Z" stroke="url(#paint0_linear_83_7162)"/>
</g>
<defs>
<filter id="filter0_b_83_7162" x="-3.60156" y="-3.5" width="309.203" height="333.004" filterUnits="userSpaceOnUse" color-interpolation-filters="sRGB">
<feFlood flood-opacity="0" result="BackgroundImageFix"/>
<feGaussianBlur in="BackgroundImageFix" stdDeviation="2"/>
<feComposite in2="SourceAlpha" operator="in" result="effect1_backgroundBlur_83_7162"/>
<feBlend mode="normal" in="SourceGraphic" in2="effect1_backgroundBlur_83_7162" result="shape"/>
</filter>
<linearGradient id="paint0_linear_83_7162" x1="1.00003" y1="-12.3335" x2="386.111" y2="73.5324" gradientUnits="userSpaceOnUse">
<stop stop-color="#CB42AD" stop-opacity="0.1"/>
<stop offset="0.619792" stop-color="#7B39FE"/>
<stop offset="1" stop-color="#CB42AD" stop-opacity="0.1"/>
</linearGradient>
</defs>
</svg>
